/* XPM */
static char *_a343be4dbab4da5b29bdb1dc0c5a24f1Du3xmLBkXpbnJ5E[] = {
/* columns rows colors chars-per-pixel */
"64 64 152 2 ",
"   c #676767",
".  c #686767",
"X  c #6B6B6B",
"o  c #6C7479",
"O  c #667979",
"+  c #69797A",
"@  c #757575",
"#  c #787776",
"$  c #747779",
"%  c #76797A",
"&  c #7E7E7E",
"*  c #747F84",
"=  c #7F7F80",
"-  c #728284",
";  c #7E8285",
":  c #7D868B",
">  c #7C8A8D",
",  c #738B91",
"<  c #7C8B91",
"1  c #7D9093",
"2  c #76B7DA",
"3  c #77BADD",
"4  c #79BCDE",
"5  c #79BDE0",
"6  c #65D3DA",
"7  c #69D6DD",
"8  c #5FDDE5",
"9  c #76C3EB",
"0  c #79C6ED",
"q  c #76C8ED",
"w  c #61DEE6",
"e  c #6DDDE6",
"r  c #65DDE9",
"t  c #6CDEE8",
"y  c #77CFFC",
"u  c #72D3F7",
"i  c #75D1FA",
"p  c #7ED2FB",
"a  c #5FE0E8",
"s  c #5CEDF6",
"d  c #63E0E7",
"f  c #62E1E9",
"g  c #6FE0E9",
"h  c #73E1EA",
"j  c #60E7F3",
"k  c #6DE7F5",
"l  c #60E8F6",
"z  c #6BEBF6",
"x  c #73EFF6",
"c  c #7EECF5",
"v  c #818182",
"b  c #878B8D",
"n  c #8D8D8D",
"m  c #908E8E",
"M  c #868C90",
"N  c #898D90",
"B  c #879596",
"V  c #859798",
"C  c #8B969A",
"Z  c #87999A",
"A  c #899A9B",
"S  c #919292",
"D  c #929699",
"F  c #959A9D",
"G  c #9C9C9C",
"H  c #85A3A5",
"J  c #8DA3A7",
"K  c #B5CEDF",
"L  c #81C6EB",
"P  c #87C9EC",
"I  c #82D2FC",
"U  c #89D4FB",
"Y  c #91D5FA",
"T  c #B6CFE0",
"R  c #B7D1E2",
"E  c #B8D1E2",
"W  c #B5D7ED",
"Q  c #BBD7EB",
"!  c #B3DAEE",
"~  c #BDDAEE",
"^  c #BDDAEF",
"/  c #BEDAEE",
"(  c #BFDBEF",
")  c #BEDAEF",
"_  c #BDD9ED",
"`  c #BEDAEE",
"'  c #B5DCF0",
"]  c #B8DAF0",
"[  c #BFDCF1",
"{  c #BEDCF0",
"}  c #B3E4FC",
"|  c #B9E7FD",
" . c #BDE4FF",
".. c #BDE4FE",
"X. c #BFE5FF",
"o. c #BDE5FE",
"O. c #BAE8FE",
"+. c #BBE8FE",
"@. c #BBE9FE",
"#. c #BBE8FE",
"$. c #C3DBED",
"%. c #C5DEEF",
"&. c #C4DCED",
"*. c #C0DDF2",
"=. c #C6DFF1",
"-. c #C1DDF1",
";. c #DEE7EC",
":. c #C3E6FE",
">. c #C7E7FE",
",. c #C7E7FF",
"<. c #C7E7FE",
"1. c #C8E7FE",
"2. c #C1EAFD",
"3. c #C7E8FF",
"4. c #C6E9FF",
"5. c #C8E8FF",
"6. c #C8E9FF",
"7. c #CFEAFE",
"8. c #CFEBFF",
"9. c #C9E9FF",
"0. c #D0EBFF",
"q. c #E1E1E1",
"w. c #E2E2E2",
"e. c #E1E1E1",
"r. c #EAEDEF",
"t. c #E8ECEE",
"y. c gray93",
"u. c #EEEDED",
"i. c #EFEFEE",
"p. c #EFEFEF",
"a. c #EDEEEE",
"s. c #F0EFEF",
"d. c #F0F0EF",
"f. c #E2ECF1",
"g. c #E0EFF0",
"h. c #EBEEF1",
"j. c #EBEEF0",
"k. c #E8F6FE",
"l. c #E8F7FE",
"z. c #E7F9FD",
"x. c #EFF9FE",
"c. c #EFF9FF",
"v. c #EFFAFF",
"b. c #ECFCFE",
"n. c gray94",
"m. c #F1F1F1",
"M. c gray95",
"N. c #F1F1F0",
"B. c #F9FCFF",
"V. c #F9FDFF",
"C. c white",
"Z. c #FDFEFF",
/* pixels */
"& & & & @ @ @ @ @ @ @ @ @ @ @ @ @ @ @ @ & & = v m m m m n n m n X     X n n S n v & v & $ @ @ @ @ @ @ @ @ @ @ @ @ @ @ @ & & & & ",
"& v & & @ @ @ @ @ @ @ @ @ @ @ @ @ @ @ @ & & = v n m m m S m m n X     X n n n n v & & & @ @ @ @ @ @ @ @ @ @ @ @ @ @ @ @ & & & & ",
"v & v & @ @ @ @ @ @ @ @ @ @ @ @ @ @ @ @ & = = v n m m m m n m b X   . X n n n n v & & & @ @ @ @ @ @ @ @ @ @ @ @ @ @ @ @ & & & & ",
"& & & & # @ @ # @ @ @ # @ @ @ @ % $ @ # & = v v n n S m m n m b @   X @ b n S n v v v & # # $ # @ @ @ X @ @ @ @ @ @ @ @ & & & & ",
"& = = & & & & & b n n n n n n n n n n n n n n m n S S n n m n n @ @ @ # b m n m n n n n n n n v X     X & & & & & & & & # @ @ # ",
"= = & = v & & v n m n n n n n n m m n n N m m N S n m n n S n n @ @ @ # n n n m m n n S m m m b X     X & v & & & & & & @ @ @ @ ",
"= = = & & & & & n m n m m n m m m m m m m S n m n n n n S n n n @ @ @ # n n m m n S n m m n n n X       - & & & & & & & @ @ @ @ ",
"= = & = & & & & b n n n n n n n C C C C n n n n n n n n N n n b # # # # b n n n n n n n n n n n - # # % v > > > v & & & @ @ @ @ ",
"& & & & X X X X @ @ @ @ @ # # - 5 0 0 5 : @ @ @ # @ # @ # # # % b n b n % # # % & v v v & v v b T { ^ W L 0 9 4 > & & & & & & & ",
"& & & & X . . X @ @ @ @ @ @ @ - q y y 9 * @ @ @ @ @ @ @ @ @ @ # n n n n # @ # @ & & & & & & & b ^ <.<.:.I i i q b & & & & & & & ",
"& & & & X . . X @ @ @ @ @ @ @ - 9 y y 9 * @ @ @ @ @ @ @ @ @ @ @ n m m n # @ @ @ & & & & & & & b ^ 6.<. .I i i 9 : & & & & & v & ",
"& v & & @ X X X @ @ @ @ @ @ @ & 3 q 9 3 * @ X @ @ @ @ @ ; ; ; ; B A B B % @ @ @ & & & & & & & b K ^ $.W L 0 9 3 > & & & & v & & ",
"& & & v b n n b & & & & & & & & b : > ; X X X X % & & b R ^ ^ ! g d f 7 > & & & # # @ @ # @ # # ; ; ; ; - - - % @ @ @ # & & & & ",
"v & & v m m n n v = & = & & & & & & & & X X . X & & & b ( 6.6.@.z s s a > & & & # @ @ @ @ @ @ @ @ @ @ @ @ @ @ @ @ @ @ @ & v & v ",
"& v & v n m m m v & = = = = ; & = = = & X   . X % & & b ^ 3.6.@.z s s a > & & & @ @ @ @ @ @ @ @ @ @ @ @ @ @ @ @ @ @ # # & & & v ",
"& & & v n m n m v v v = & & & & & & & % X X X X & & & b R $.^ ! g 8 a 6 > & & & $ # # # # + # # @ @ @ @ @ # % # @ # # # # & & & ",
"& v & v m S S n n n m n # @ @ @ @ # @ @ @ @ @ @ @ @ @ @ ; ; v : - - - + @ # @ % b n n n n n n n n n n n n n n n n n n b X X X X ",
"& & & v n m S n m n m n # @ @ @ @ @ @ @ @ @ @ @ @ @ @ @ @ @ X @ @ @ @ @ @ @ @ @ n n m n n m m m m n n n m m n n n n n n X X . . ",
"v & & v n n n S n m m n # @ @ @ @ @ @ @ @ @ X @ @ @ @ @ @ @ @ @ @ @ @ @ @ @ @ # n n m m n n n n n n m m n n m n m n m n X . X . ",
"& & & & b n b n n n n n # @ @ @ @ @ @ $ v b v v ; = ; = o @ @ @ @ @ @ @ @ @ @ # D G G G F F F D n n n n n b n n b b n v @ X X X ",
"@ @ @ @ # # # # = = v v & & & & & & & n e.i.i.t.$.~ ~ K = @ @ @ & & & % X X X % e.d.d.h.:.$.$.R ; @ @ # $ # @ @ X X X X # & & & ",
"@ @ @ @ @ @ @ @ & = = = & & & ; & & & n d.C.C.V.7.3.3.^ ; @ @ @ & & & & X X . & y.C.C.V.7.<.3.~ ; @ @ @ @ @ @ @ X X X X & & & & ",
"@ @ @ @ @ @ @ @ & = & & & & & & & & & n i.C.C.V.7.<.3.~ ; @ @ @ & = = & X X . % u.C.C.V.0.1.1.^ ; @ @ @ @ @ @ @ X X . X & & & & ",
"# # # # # # @ # & = = v n m m m n b b F f.x.x.k.:. . .! < * - * & = = # X X X & ;.x.x.l.@.@. .! : @ @ # # # # @ @ X X @ % & # & ",
"n n n n n n b b & & & m w.d.d.r.-.^ ( ] Y U U U I I I p r w 8 6 > & & & & & & : P U U U k z z h B n n n n n n n n b b v X X X X ",
"n n n n n n n n & & & m d.C.C.V.8.3.3.o.I y y y y y y u j s s w > & & & & v & > 9 y y i s s s d B m n n n n n n n n m n @ . . . ",
"S n S n n S S n v & & n d.C.C.Z.0.6.6.o.I y y y y y y y s s s 8 > & & & = & & > 0 i i u l s s d A m m m S n S n m n m n X . . . ",
"n n n n n n n n v & & n e.y.y.y.&.^ ^ W L 9 9 9 9 9 5 9 8 8 8 6 > & & & & & % : 2 9 9 9 w w w 6 B n n b n b b n n n n b @ X X X ",
"& & v v v v v & & & & & b v v v v ; ; ; - * * * * - * * - - * - # @ # @ X X X X - - - - - - - - # # # # # # # # v v v v & & & # ",
"& & & & & & & & & & & & @ # @ X @ @ @ @ @ @ @ X @ @ @ @ @ @ @ @ @ @ @ @ . . X X X @ @ @ @ @ @ @ @ @ @ @ @ @ @ @ & & & v & & & & ",
"& & & v & & & & & & & & # @ @ @ @ @ @ @ @ @ @ @ @ @ @ @ @ @ @ @ @ @ @ X       X @ @ @ @ @ @ @ @ @ @ @ @ @ @ @ # & & & & & & & & ",
"& v & v N N N N b > > : @ @ @ @ @ @ # $ @ @ @ @ @ @ @ @ @ @ @ @ v v b v % $ $ @ % @ % @ @ @ # # @ # # @ # # # # & v v v v v v v ",
"= = % b R [ ^ ] 0 9 0 2 o . . @ v b n v @ @ @ @ & & & & & & & n ;.y.y.t.$.Q Q K D n n n n n n n b n n n n n b n n n n n n n n n ",
"& = & n -.3.3.o.I y y 9 o .   X n S S n @ @ @ @ & & & & & & & S d.C.C.Z.7.4.6.$.F m n n n n m m n m m n n S n n m n n S n m n S ",
"& = & b ( 6.3.o.I y y 9 o .   X n n S n @ @ @ @ & & & & & & & n d.C.C.Z.7.4.3.$.F m m m n n m m n n m S S n S m n S n n n n n S ",
"= & & b R ( { W 0 9 9 3 o X X X v n n b @ @ @ @ & & & & b b N G g.b.b.z.2.| | } J Z A Z n n n b n n n N b n n n m m S n n n n n ",
"& v & = v ; v ; = * * % @ X @ @ # # # # @ @ @ @ @ @ @ v K ` ` ' c x x x z z z z f f f 6 - # $ # @ # $ # # # # % n m n n v v v v ",
"= & & & @ @ @ @ @ @ @ @ @ @ o @ # @ @ # @ @ @ @ @ @ @ ; ` 8.2.@.z s s s s s s s s s s d - @ @ @ @ @ @ @ @ @ @ $ n n m n v & & & ",
"& & v & @ @ @ @ @ @ @ @ @ @ @ @ @ @ @ @ @ @ @ @ @ @ @ ; ` 2.2.@.z s s s s s s s s s s a - @ @ @ @ @ @ @ @ @ @ # n n n n v v & v ",
"v & & & $ @ @ @ @ $ @ @ @ @ @ @ % - - - $ # $ # @ # # ; K ` ` ! 7 8 8 8 8 8 a 6 d d f 6 - # # # @ # # # @ @ @ # b n n n v & & & ",
"& & & & & & & & b n n v # @ @ % 3 9 9 5 C n n n n n n b v v ; ; O O O O - - - - B Z Z Z N n n n n n n n v & & & & v v v & & & & ",
"& v & & & & & v n m m n # @ @ * q i y 0 C m N m m m m n @ @ @ X . . . . X @ @ # n m m m n S m m n n n n v & & & & & & & & v & v ",
"& & & & & & & v m m m n # @ @ - 9 y y 9 C m m m n m m b # @ @ @ X X . X @ @ @ # n n m S n n m m n m m m v & & & & & v & & & & & ",
"& & & & v & v v b n n n # @ @ ; 3 q 9 5 C n n n n n n b % @ @ @ X X X X @ # # # b n n n F F F F A A A A v v v v v v v v & & & & ",
"X X X X & & & & = v = v & & & & * * * * v = v v v v v & & & & & n n n n b b n b & v & b E -.[ ! g f f 7 Z n n n n n m v X X X X ",
"X . X X & & & & & & & = & & & & @ @ @ @ & = = = v & & & & & v v n n n m m m n n v & & n ( 6.3.@.z s s f A m m m m m m n X X . X ",
". . . X & & v & & & & & & & & & @ @ @ @ & & & & v & & & & v & v n n m m n m n n & & & b ( 6.1. .x s s f A m m m m m m n @ . . . ",
"X X X X & & & & & & & & & & & & @ @ @ @ & & & & & # & & & & & v D F F F G G G G S n b A ! 2.:.} z j s f H A A Z n n n b X X X X ",
"& & & & # @ @ @ @ @ @ @ @ @ @ @ @ @ @ @ @ @ @ @ @ @ @ @ @ @ @ v R $._ :.h.N.N.u.%._ _ Q U I I I u i u u r d d 7 - # # # & & % & ",
"& & & & @ @ @ @ @ @ @ @ @ @ @ @ @ @ @ @ @ @ @ @ @ @ @ @ @ @ @ - ( 1.1.8.V.C.C.V.0.3.3...I y y y u p y y l s s w - @ @ @ & & & & ",
"& & & & @ @ @ @ @ @ @ @ @ @ @ @ X @ @ @ @ @ @ @ @ @ @ @ @ @ @ v ( 3.3.7.V.C.C.V.0.<.1.:.I y i y i i y i l s s w - @ @ @ & & & & ",
"& & & & # @ # # @ @ @ @ & ; v - - - - - # @ @ # # @ @ @ @ @ @ & R ( ^ $.z.b.b.z.2.| | } 0 9 9 9 9 9 0 9 r d f 6 - # # # = v v v ",
"& = & v n n n v @ @ @ = K ( Q ! d d 8 6 > & & & - & & & @ @ @ @ ; ; ; 1 h x x x z z z e , - % - b > b > > > > > b n n n m n n n ",
"= & & v n m n n @ @ @ ; ~ 3.3.@.z s s d , & & & & & & & @ @ @ @ @ X @ - a s s s s s s 8 - @ @ @ & & & & & & & = m n n n m m m n ",
"& & & v n n m n @ @ @ ; ( 6.3.@.x s s 8 > & & & & & & & @ @ @ @ @ @ @ - a s s s s s s 8 - @ @ @ & = & = = & = v n m n n n m m m ",
"& v v v n n n n $ @ @ ; R [ ( ! e a a 6 > & & & & & & & @ @ @ @ @ @ @ - 6 a f f f f f 6 - # @ # & & = & & & & & b n n n n n n m ",
"& & & = v v = v & & & & ; ; ; ; - - - % # @ @ @ @ @ @ @ @ @ @ @ % & & & : > > 1 Z Z A Z n n n n ; & & & @ @ @ # # # # % v v v & ",
"v & v & = = = & & & & & @ @ @ @ @ X @ @ @ @ @ @ @ @ @ @ @ @ @ # & = & = & & & & n n n m m m n n v & v & @ @ @ @ @ @ @ @ & & & & ",
"& & & = = & & & ; = = & @ @ @ @ @ @ @ @ @ @ @ @ @ @ @ @ @ @ @ # & & = & & v & v n n m n m n m n v & & & @ @ @ X @ @ @ @ & & v & ",
"& & & & & & & & & & & & @ @ @ @ @ @ @ @ @ # # # # @ # @ @ @ # # & = & = & & & v n n n n n n n N v & & & @ @ @ @ @ @ @ @ & & v & ",
"# @ @ @ @ @ @ @ @ @ @ @ @ @ @ X X X . @ n n b n n n n b v & & & & & & & v & v & v v v v # @ @ @ @ @ @ @ @ @ @ @ & & & & & & & v ",
"@ @ @ @ @ @ @ @ @ @ @ @ @ @ @ @ X . . X b m m S n n n n v & & & v & v & & & & & & & & & @ @ @ @ @ @ @ @ @ @ @ @ & & & v v & & & ",
"@ @ @ @ X @ @ @ @ @ @ @ @ @ @ @ X . . X n n n m n n n n v & v & & & & v & & v & v & & & @ @ @ @ @ @ @ @ @ @ @ @ & & & & & v & v ",
"@ @ @ @ @ @ @ @ @ @ @ @ X @ @ @ . . . X n n n S m S n n v & & & & v & & v v & & & & v & @ @ @ @ @ @ @ @ @ @ @ @ & & & v & & & & "
};
