/* XPM */
static char *_602717809844b3e94b4ea10a71eb9fdBI533udW1RtvQz7G[] = {
/* columns rows colors chars-per-pixel */
"64 64 163 2 ",
"   c #070606",
".  c #0E0605",
"X  c #0E0909",
"o  c #120605",
"O  c #190702",
"+  c #1E0B07",
"@  c #140B0A",
"#  c #1B0C0A",
"$  c #1E120F",
"%  c #0F1212",
"&  c #131313",
"*  c #1C1413",
"=  c #161817",
"-  c #1A1917",
";  c #131718",
":  c #171C1D",
">  c #1D1B1A",
",  c #2B0F08",
"<  c #320D0B",
"1  c #23120E",
"2  c #241614",
"3  c #2B1513",
"4  c #261915",
"5  c #281A16",
"6  c #231B1A",
"7  c #2A1C1B",
"8  c #331713",
"9  c #321917",
"0  c #321E1D",
"q  c #3A1E1B",
"w  c #25211E",
"e  c #2C211E",
"r  c #32231F",
"t  c #3C211D",
"y  c #1F2323",
"u  c #262323",
"i  c #2D2224",
"p  c #2E2528",
"a  c #262929",
"s  c #2D2C2A",
"d  c #332423",
"f  c #322825",
"g  c #342C2B",
"h  c #382E2F",
"j  c #362F30",
"k  c #2E3233",
"l  c #343434",
"z  c #3A3335",
"x  c #353738",
"c  c #3B3639",
"v  c #363C3D",
"b  c #3A3D3E",
"n  c #4C181C",
"m  c #5B1B1C",
"M  c #601716",
"N  c #621B1C",
"B  c #6C1B1B",
"V  c #711616",
"C  c #7B1814",
"Z  c #7C1B1A",
"A  c #43221A",
"S  c #49211F",
"D  c #551E21",
"F  c #5E1C22",
"G  c #651B22",
"H  c #6B1D23",
"J  c #741F23",
"K  c #7C1F21",
"L  c #443935",
"P  c #493D37",
"I  c #443D3C",
"U  c #4A3D39",
"Y  c #5E3738",
"T  c #5D3D3E",
"R  c #642422",
"E  c #6B2223",
"W  c #6E282D",
"Q  c #742125",
"!  c #7D2526",
"~  c #7E2827",
"^  c #73262A",
"/  c #792429",
"(  c #732F2F",
")  c #7B2A2A",
"_  c #732F30",
"`  c #6D3333",
"'  c #693836",
"]  c #643939",
"[  c #713131",
"{  c #713831",
"}  c #47413D",
"|  c #49423D",
" . c #5D423E",
".. c #373F40",
"X. c #383F40",
"o. c #403F41",
"O. c #5A3F40",
"+. c #3C4344",
"@. c #3F4648",
"#. c #3F4849",
"$. c #424245",
"%. c #494543",
"&. c #474847",
"*. c #4B4A47",
"=. c #424649",
"-. c #4F4748",
";. c #454C4E",
":. c #494A4C",
">. c #524446",
",. c #594041",
"<. c #584947",
"1. c #524748",
"2. c #544C4B",
"3. c #464E50",
"4. c #4A4F51",
"5. c #475153",
"6. c #495255",
"7. c #4B5659",
"8. c #4E5A5D",
"9. c #515254",
"0. c #5D5152",
"q. c #505C5F",
"w. c #5E585A",
"e. c #4F5D60",
"r. c #515E61",
"t. c #526164",
"y. c #5C6367",
"u. c #55666A",
"i. c #57696D",
"p. c #586A6D",
"a. c #5A6D71",
"s. c #676160",
"d. c #8C1C06",
"f. c #871C0D",
"g. c #9C1D04",
"h. c #941D0B",
"j. c #811C15",
"k. c #891D12",
"l. c #831D1D",
"z. c #8C1D1C",
"x. c #921D17",
"c. c #991D16",
"v. c #921C1B",
"b. c #981D18",
"n. c #A31E05",
"m. c #9C2007",
"M. c #93240E",
"N. c #9C210A",
"B. c #862112",
"V. c #8B201F",
"C. c #8E2E1B",
"Z. c #972017",
"A. c #9B2212",
"S. c #91211B",
"D. c #982718",
"F. c #A1230F",
"G. c #AC230C",
"H. c #A32915",
"J. c #871E20",
"K. c #822524",
"L. c #892121",
"P. c #882824",
"I. c #863021",
/* pixels */
"k b v v ..b v ..b v v v b v v b v k v ..v v z m G F D * o M V H G c X.v X.X.v X.v v v v v v ..b v b v v ..b b v v b x k x x v k ",
"x +.@.+.+.+.+.+.+.+.=.+.+.+.#.+.@.X.@.+.+.+.o.^ / / ^ * o Z J.J./ o.+.+.X.@.@.X.#.#.#.+.#.+.+.#.+.+.@.+.+.+.+.+.@.+.+.+.+.+.+.x ",
"k +.+.v ......b ........+.v ..v ......X.X...X.W / / G * o K K / ^ I ..X.b X.X.X...............................b ..b +.X.....+.k ",
"k v +.v g f f f f f h g g z z z z j z v X...b ^ / / H * o K K./ _ b ..v f f p d f f r f r f f f g f z z c g r f g l l X.......k ",
"k ....g f g l k l l x l l x x c x x c ..X.X.b W / / G * o Z / / ^ b v f f l l l k l l j l l k l c l x x x c k k l x b ........k ",
"k ..b f g b v +.b ......+.....+.....+...=.X.b W / / F * o Z K./ W I x r c ....b +.................+.........+...+...v +.+.....k ",
"k +.v f l +.+.+.....+.....+.....+.....+.=.+.b W / / F * o Z K K ^ b v f v +...X.+...........+.+.......+...+...+.......+.@.+.+.k ",
"v #.#.l X.=.+.=.=.=.=.#.#.=.=.@.=.#.#.=.8.=.&./ J.J.H 7 1 h.J.J.K.%.+.h +.#.=.=.=.=.=.=.=.=.#.=.=.#.=.=.&.=.#.=.=.=.@.5.6.#.#.x ",
"x @.+.g c +.@.X.+.+.+.+.@.+.+.+.+.+.+.@.3.#.o./ K J.G > # k.K.J./ o.X.f +.+.+.+.+.+.+.+.@.+.+.+.+.+.+.+.+.+.+.=.+.+.+.#.3.+.+.x ",
"v =.=.z X.=.=.@.#.=.#.=.#.=.#.=.=.=.=.=.7.3.%.! J.J.H 7 1 h.z.z.! %.=.c =.=.@.=.=.#.3.=.=.=.#.=.;.#.=.=.;.=.=.=.=.=.=.3.7.#.#.v ",
"..3.3.c o.3.3.3.5.;.3.;.3.3.3.3.3.;.4.4.i.6.4.K.v.v.J 2 + n.c.v.K.-.;.+.;.;.;.3.=.3.3.3.;.;.;.;.3.3.3.;.;.;.3.;.5.;.;.8.u.;.3.v ",
"..3.3.c $.3.3.3.3.3.;.;.@.=.3.3.3.3.3.3.t.6.:.K.v.J.J 2 O n.c.v.K.-.3.=.;.3.3.3.5.3.3.3.3.4.3.;.3.;.;.3.;.3.;.;.3.3.;.8.t.3.3.v ",
"v 3.;.z o.3.3.3.3.;.;.=.e.6.3.3.3.;.3.3.u.7.:.K.v.v./ 7 1 F.h.v.L.1.;.;.3.8.e.r.i.e.p.p.a.p.8.;.;.;.;.3.3.;.;.3.;.3.;.8.u.3.5.v ",
"..3.3.c $.3.3.3.:.;.b 3.8.5.;.3.;.;.;.3.a.7.1.K.v.v./ i 3 n.c.x.K.-.3.;.3.6.6.6.7.7.8.8.8.7.7.8.3.3.3.;.;.3.3.;.;.;.;.r.i.&.3.v ",
"X.3.3.z o.3.3.3.;.b ;.6.3.3.3.;.;.3.3.4.a.7.:.L.v.v.J e 4 F.b.v.L.1.;.:.:.:.;.:.;.;.;.;.=.;.4.6.7.5.;.3.3.;.;.3.3.;.;.8.p.3.3.v ",
"X.4.4.X.$.;.;.3.I L :.3.;.;.3.;.3.3.3.3.a.7.:.K.v.J.J 4 2 N.b.v.z.K.~ ~ ~ ~ ~ ~ / K.K.K.) ,.:.3.6.7.3.;.;.;.3.;.;.3.;.8.p.;.3.v ",
"..3.;.X.;.;.3.;.I P *.3.3.;.3.;.3.;.3.4.a.7.:.K.x.v.J 7 3 N.c.v.v.v.x.v.v.v.v.v.v.v.v.v.v.L.[ ;.5.6.8.3.3.3.3.3.;.;.;.r.u.3.3.v ",
"X.3.;.;.;.3.3.4.%.U *.3.3.3.3.3.3.3.3.r.a.7.-.K.v.v.l.4 2 N.c.v.v.v.v.v.v.v.v.v.v.v.v.v.v.v.L.,.;.;.6.8.3.4.3.4.3.3.7.i.i.3.3.c ",
"X.;.;.3.3.8.e.8.8.0.y.r.i.r.i.a.a.a.a.a.e.3.:.K.v.z.! 7 4 M.F.F.F.F.F.F.A.x.N.x.c.z.z.v.v.v.v.) ;.;.3.6.r.a.a.a.a.a.a.p.4.3.3...",
"v ;.3.;.3.4.4.4.*.2.7.7.7.6.7.8.7.8.7.7.3.3.3.] D.b.l.d 7 t A A A A A A A 9 t 3 8 3 < J V.v.v./ ;.3.;.3.7.7.7.7.7.7.8.4.3.;.3...",
"X.3.;.;.;.;.;.;.| U &.:.;.;.;.3.;.=.;.;.3.=.&.I.Z.v.z.E r i i i e r e e > 7 > w & & @ 2 Y / ` ~ :.;.4.;.;.&.;.;.;.;.;.;.3.;.3.v ",
"X.3.:.:.c z z z d r h X.c X.X.X.+.+.+.;.;.3.9.P.v.v.v.z.l.Z Z Z Z Z Z Z Z Q I +.o.k % % =.O.K.~ :.;.=.z z z c X.X.X.@.;.3.3.;...",
"X.;.3.X.X.o.=.=.I L o.=.=.;.=.;.=.=.=.;.+.;.3.' V.v.v.v.v.v.v.v.v.v.v.v.L.] [ -.;...& % #.4.] ) :.&.c =.$.=.=.;.;.;.;.;.3.;.3.v ",
"X.;.;.z o.3.;.;.&.%.:.;.;.3.3.3.3.#.;.+.=.;.3.1.K.v.z.v.v.v.v.v.v.v.v.v.z.~ ] ` *.v % ; 7.1.[ O.3.&.z 3.3.3.3.3.;.;.;.7.7.;.;...",
"X.;.;.X.o.6.5.3.o.-.:.3.3.;.3.3.#.5.#.@.=.8.5.;.>.` K.z.J.J.J.v.L.L.z.L.L.V.~ ,.;.X.% = 8.:.T ` 4.=.z ;.3.;.;.3.3.;.3.7.7.;.4.X.",
"X.;.:.z o.5.3.3.;.o.;.3.;.3.=.#.t.5.@.#.t.7.8.5.;.-.>.1.-.O.1.>.>.1.>.>.>.T V.( ;.x % & 8.>._ O.3.o.c ;.;.;.3.;.;.3.4.6.e.;.;.v ",
"X.3.:.X.o.6.;.3.4.;.;.;.3.;.=.r.8.=.+.7.7.3.3.q.3.=.;.;.;.;.;.;.;.;.;.3.3.1.~ O.;.x % : u.:.] ` :.o.z ;.3.;.4.;.;.3.;.8.r.;.3.X.",
"X.3.:.X.o.;.3.;.;.o.;.:.3.3.7.7.3.@.#.5.;.3.;.3.+.c z z z z z X.+.+.;.3.3.:.T [ &.x % : i.1._ -.4.=.z @.;.4.;.;.3.;.;.7.r.;.;.v ",
"X.;.4.o.o.6.3.;.4.:.;.;.;.3.4.3.3.=.;.;.3.;.3.;.;.&.&.=.;.$.=.;.=.;.;.4.3.-.( >.;.x % : i.:.:.;.3.X.o.7.3.;.;.3.;.;.;.e.p.3.3...",
"X.;.o.X.o.5.;.3.3.;.4.;.3.;.;.;.3.5.;.3.;.3.;.3.3.3.;.3.3.3.3.;.3.3.3.q.3.;.>.;.#.x ; y e.3.;.;.;.@.=.4.;.3.3.;.;.;.;.r.p.4.;...",
"X.;.;.o.o.5.5.;.;.;.3.;.;.;.;.3.;.3.;.;.3.3.;.;.;.3.;.;.3.;.3.;.3.3.3.r.3.-.[ *.;.x > a u.3.;.;.;.e.X.:.;.;.;.3.4.;.4.r.i.;.;.X.",
"X.;.;.X.o.7.;.;.3.;.;.3.;.4.3.;.3.;.;.3.;.;.3.;.3.;.;.3.3.3.;.3.;.;.3.r.3.;.-.3.=...> p e.3.3.3.6.;.;.;.3.3.=.7.r.;.:.r.r.;.;...",
"b 3.4.c o.3.3.;.;.;.3.;.3.;.;.3.3.3.3.3.;.5.;.3.3.;.;.3.3.3.3.;.3.;.3.r.3.3.3.3.&...w u 8.3.4.&.5.r.@.;.;.=.=.7.6.;.;.8.q.;.3.v ",
"X.3.3.c $.3.;.;.3.4.;.;.;.;.3.;.3.3.&.3.=.&.&.3.;.;.3.;.3.3.&.3.;.3.6.a.6.:.-.;.3...> a 8.3.;.*.8.3.+.;.+.I 7.5.;.3.;.q.i.;.3.v ",
"v 3.3.c $.3.;.3.;.3.;.3.3.;.3.;.;.3.=...z z z =.3.;.4.3.3.;.3.3.3.;.7.a.6.1.` :.;.v w u 8.;.>.` ;.;.+.+.L } 3.;.3.3.;.q.p.;.3.v ",
"X.3.3.c o.3.3.;.;.;.3.;.3.;.;.;.3.=.o.z L } ....3.6.6.6.6.6.6.6.6.7.t.a.4.&.>.:.-...> s 8.;.:.>.;.=.+.&.} | 3.;.;.;.;.q.p.3.3.v ",
"b 3.;.c $.;.3.3.3.;.:.3.;.;.3.;.6.+.z P | &.=.#.8.p.a.a.a.a.a.a.a.a.a.6.3.-.[ O.[ $.w k 8.5.>.` ;.=.+.&.%.:.;.3.3.;.;.q.p.;.3.v ",
"..3.4.X.=.3.;.;.;.3.3.3.3.;.;.7.u.b L P %.%.3.6.t.6.6.6.5.5.7.6.2.3.3.3.3.:.T ( ,.$.> g 7.;.-.>.3.&.+.;.&.| 3.;.;.;.;.q.p.;.3.v ",
"X.3.3.c $.3.;.3.3.;.;.3.3.3.6.u.7.x L } | *.<.s.w.1.>.>.>.>.>. .I.U -.>.1.O._ ] [ $.w s ;.;.T ` ;.=.+.=.%.;.3.;.3.;.;.r.p.;.3.v ",
"X.3.4.X.&.;.4.;.;.3.;.;.3.6.u.7.;.>.'  . .{ H.H.V.L.V.V.V.S.S.B.H / L.J.z.K.] _ 1.+.> s =.T ( 1.;.;.+.;.&.5.;.3.3.:.;.8.p.3.3...",
"..3.3.X.;.3.3.;.;.;.;.;.6.u.8.;.1.K.G.G.G.F.c.v.v.v.v.b.c.h.d.< N z.v.z.v.z.) ,.3.$.w f T ( ' ) ;.=.+.3.3.3.3.3.;.;.;.r.i.3.3.b ",
"X.3.;.;.3.4.4.7.7.7.7.7.u.7.3.:.] L.v.v.c.v.v.c.A.c.c.h.d., $ * G z.v.v.v.J.] [ :.+.> A C.' V.~ :.3.3.3.4.5.4.7.7.7.q.p.u.;.3.v ",
"X.3.;.;.3.8.e.u.a.a.a.a.8.3.3.:.~ S.v.v.z.Z Z Z.M.m.h., * 6 = 6 4 F H V f.C H I +.l u A A.V.v.K.:.3.3.4.e.e.r.a.a.a.a.u.3.;.3.v ",
"v ;.;.3.3.3.3.4.5.5.6.6.3.:.;.:.K.v.v.z.E 2 $ e 7 4 e 7 > > > - > X . o o X * > u w u S V.v.v.K.:.3.3.3.3.3.3.4.3.3.6.3.3.3.3.v ",
"X.3.3.4.=.$.=.=.=.=.=.=.;.3.3.:.! v.v.z.3   1 q 3 q d q 3 q 9 q 3 3 3 3 3 3 3 8 9 t n Q v.v.v./ :.;.3.;.$.$.;.;.&.;.;.3.3.3.3.b ",
"X.3.3.=.c z c z X.+.+.+.=.;.3.:.K.v.v.l.3 . V z.z.z.z.z.z.z.z.z.z.z.l.z.z.z.z.z.z.z.z.z.v.v.v.) ;.3.;.o.z z c X.+.X.+.;.;.;.3.v ",
"X.;.;.c X.=.;.;.3.;.;.;.3.3.3.:.~ x.v.K 2 . C b.v.v.z.v.v.v.v.v.v.v.v.v.z.v.z.v.z.v.v.v.v.v.L.O.4.3.o.c ;.;.;.3.3.=.;.3.3.3.3.v ",
"X.;.4.z o.4.;.;.3.=.=.3.3.8.6.&.K.v.z.l.3 . f.b.v.v.v.v.v.v.v.v.v.v.v.v.v.v.v.v.v.x.v.v.z.L.[ *.3.o.c 3.3.;.;.3.3.3.3.6.8.3.3.v ",
"X.;.;.z o.6.5.3.o.X.X.:.3.r.6.:.K.v.v.Q 2 . C v.v.v.K.~ K./ K./ / K./ K.K.K.K./ K.K./ ~ ) T :.;.o.I =.;.;.4.;.;.3.;.;.6.e.;.4...",
"X.;.:.X.o.5.;.;.o.o.6.r.6.r.6.:.K.v.v./ 2 o h.c.v.V.>.:.:.4.4.:.:.4.:.:.3.;.;.:.5.:.:.3.:.;.;.$.X.;.;.;.;.3.;.3.3.;.;.7.r.;.;...",
"X.;.;.X.o.6.;.3.o.;.u.r.6.i.8.:./ v.v.J 7 o g.c.z.V.>.3.3.=.$.=.&.$.=.=.&.=.&.=.=.=.=.=.=.=.=.@.;.3.3.;.3.;.;.;.;.;.;.e.r.;.;.X.",
"X.:.;.o.o.;.3.;.:.7.6.;.3.a.7.:.K.v.v./ 7 2 g.c.v.V.1.;.$.z z z z c c z c z c o.b +.+.+.@.+.+.;.;.;.4.;.;.;.3.4.4.;.3.7.r.;.;...",
"X.;.3.X.;.:.3.;.;.;.3.;.3.a.8.o.K.v.v.Q 5 @ g.c.v.V.>.=.c +.;.;.3.3.;.;.;.;.;.;.;.;.;.;.;.;.;.;.;.;.;.3.;.:.3.;.;.:.:.e.i.4.3...",
"X.;.;.o.o.3.;.3.9.3.;.;.3.a.8.9./ v.v./ 0 $ h.b.z.z.>.;.z =.;.;.3.3.3.;.;.3.;.3.;.;.3.;.;.;.3.;.;.3.3.;.3.3.;.3.;.;.;.e.i.:.;...",
"X.;.;.X.;.3.3.;.;.;.;.3.3.a.7.:.K.v.z.J 5 @ h.b.v.L.>.=.z &.3.3.3.;.;.;.;.;.;.;.3.;.;.3.;.3.4.;.;.;.3.;.3.3.;.;.;.;.;.e.i.;.;.X.",
"X.;.3.X.X.6.3.;.;.;.3.;.3.r.8.o.K.v.z.H 0 2 j.v.v.L.1.;.x ;.3.;.;.3.;.3.3.;.3.3.;.;.3.;.3.;.;.;.4.;.;.3.;.;.3.;.3.;.;.r.i.;.;...",
"X.3.4.X.=.;.3.:.;.;.:.3.3.a.7.o.~ v.z.J 0 2 k.v.v.J.-.3.X.;.3.;.;.4.;.3.;.;.3.;.:.3.3.;.3.;.;.3.:.;.;.;.3.3.;.;.;.:.;.r.i.3.3.X.",
"X.3.3.X.;.;.3.;.;.3.;.;.3.a.8.9.K.v.z.B 7 * Z v.v.J.-.3.X.;.;.;.;.;.;.4.3.;.;.4.;.;.3.;.;.3.3.3.3.;.;.;.;.:.;.;.3.3.3.r.i.;.;.X.",
"X.;.;.@.@.3.;.;.;.:.;.;.6.a.8.o.K.v.v.G 5 * K v.v.J.-.#.=.;.;.;.3.3.3.;.;.;.;.;.;.;.;.3.;.;.;.;.;.;.;.:.;.;.;.;.;.;.;.r.i.;.;.X.",
"X.3.;.;.;.7.7.4.7.8.e.e.u.a.6.9.K.v.z.G 7 * Z v.v.J.O.3.3.3.3.7.6.6.6.7.8.r.8.q.8.7.8.7.q.q.q.8.e.r.e.e.e.r.e.e.e.e.r.i.r.;.;...",
"X.;.;.;.;.7.e.e.e.u.a.i.i.6.3.:.~ v.z.N 5 * Z v.v.V.1.4.4.4.e.e.8.8.e.r.i.i.i.p.u.r.u.r.i.p.p.i.i.p.p.p.i.p.p.p.i.i.i.r.3.3.3...",
"..;.3.4.;.:.;.;.;.3.;.:.3.3.3.:.K.v.v.H 0 4 Z v.v.J.1.4.:.;.;.;.3.3.3.4.3.3.3.3.3.4.3.3.3.3.3.3.3.3.3.4.;.;.3.3.3.3.3.3.:.3.;.X.",
"z o.X.o.X.o.o.o.X.o.X.o.o.o.o.o.R B B n 7 6 m B B m z v X.X.X.o.o.o.$.o.$.o.o.o.I X.o.o.X.o.o.I X.I c X.X.I o.o.o.o.o.o.o.X.o.z ",
"u 7 2 3 2 3 3 i 7 i i p p p p p 7 5 5 * & & & 2 = & & * u > p p p p p p p p p p 7 i 7 p i 7 i 7 i 5 5 3 5 3 7 i 7 i i p p p p u "
};
