/* XPM */
static char *a8730a06f5ab4c98875f98010e7b8f0ajUhJb2tebkeAy09N[] = {
/* columns rows colors chars-per-pixel */
"64 64 246 2 ",
"   c #1D1A08",
".  c #1B1F1E",
"X  c #221E0C",
"o  c #271B06",
"O  c #251D1A",
"+  c #391D19",
"@  c #1F2114",
"#  c #25230E",
"$  c #29240C",
"%  c #252312",
"&  c #2A2414",
"*  c #2A2A12",
"=  c #2B251B",
"-  c #2C2A1C",
";  c #26271B",
":  c #332514",
">  c #33241B",
",  c #342B1B",
"<  c #3A2D1D",
"1  c #372618",
"2  c #3A301E",
"3  c #35321A",
"4  c #302D12",
"5  c #1F2324",
"6  c #2B2523",
"7  c #2D2B24",
"8  c #2C2C2C",
"9  c #262728",
"0  c #332623",
"q  c #332C24",
"w  c #3B2B24",
"e  c #342C2A",
"r  c #3B2C2B",
"t  c #3A2525",
"y  c #343023",
"u  c #3A3224",
"i  c #34322B",
"p  c #3B322C",
"a  c #363829",
"s  c #352E33",
"d  c #3B3434",
"f  c #383734",
"g  c #2E2E2D",
"h  c #482A1C",
"j  c #693619",
"k  c #452C27",
"l  c #42332C",
"z  c #483528",
"x  c #55372A",
"c  c #4B3C3B",
"v  c #453737",
"b  c #563B37",
"n  c #402932",
"m  c #663D2A",
"M  c #643D36",
"N  c #4D433C",
"B  c #4A4838",
"V  c #544638",
"C  c #514632",
"Z  c #66453B",
"A  c #754933",
"S  c #4B3B43",
"D  c #603D41",
"F  c #4A4745",
"G  c #574A47",
"H  c #5C524C",
"J  c #545443",
"K  c #5D5554",
"L  c #514B50",
"P  c #674944",
"I  c #6A5349",
"U  c #78564B",
"Y  c #644C54",
"T  c #6B5E5A",
"R  c #655855",
"E  c #775A58",
"W  c #744C47",
"Q  c #6B615E",
"!  c #75625E",
"~  c #655B63",
"^  c #755B64",
"/  c #6C6566",
"(  c #736362",
")  c #746B6B",
"_  c #79666A",
"`  c #7A7377",
"'  c #726E76",
"]  c #885339",
"[  c #864E33",
"{  c #89594B",
"}  c #875A5A",
"|  c #955D56",
" . c #93584D",
".. c #896558",
"X. c #976359",
"o. c #90614F",
"O. c #A26A5B",
"+. c #AA715C",
"@. c #8F5E62",
"#. c #896767",
"$. c #966A67",
"%. c #96736C",
"&. c #867779",
"*. c #977677",
"=. c #8F6F70",
"-. c #A26D6B",
";. c #A67769",
":. c #A77977",
">. c #B37F6A",
",. c #98827E",
"<. c #A8857B",
"1. c #B68575",
"2. c #787A8A",
"3. c #6E7688",
"4. c #877D85",
"5. c #997C82",
"6. c #A97F83",
"7. c #7C8697",
"8. c #7E808F",
"9. c #8A838A",
"0. c #94838B",
"q. c #988789",
"w. c #848494",
"e. c #8C8593",
"r. c #8D8A94",
"t. c #85859B",
"y. c #8B869C",
"u. c #848C9C",
"i. c #8C8B9D",
"p. c #868897",
"a. c #938B95",
"s. c #9B8C94",
"d. c #938D9C",
"f. c #968997",
"g. c #8D909E",
"h. c #95929C",
"j. c #9B929C",
"k. c #9C999D",
"l. c #999295",
"z. c #A58889",
"x. c #A48C96",
"c. c #A3939C",
"v. c #A79699",
"b. c #B4999A",
"n. c #B18D8B",
"m. c #8D8CA2",
"M. c #8B8CA5",
"N. c #928EA4",
"B. c #928DAB",
"V. c #998DA3",
"C. c #8591A2",
"Z. c #8D92A4",
"A. c #8E94AB",
"S. c #8E9AAB",
"D. c #9493A4",
"F. c #9B94A4",
"G. c #9C99A5",
"H. c #9494AB",
"J. c #9A96AC",
"K. c #949BAC",
"L. c #9B9BAC",
"P. c #9598A7",
"I. c #8E96B8",
"U. c #9496B4",
"Y. c #9995B3",
"T. c #959BB3",
"R. c #9C9BB3",
"E. c #9395BA",
"W. c #959CBB",
"Q. c #9C9CBA",
"!. c #A195A3",
"~. c #A39CA3",
"^. c #A39CAC",
"/. c #AA9DAA",
"(. c #A99AA5",
"). c #B39DA6",
"_. c #A39EB4",
"`. c #A29EBB",
"'. c #A99FB3",
"]. c #96A2B3",
"[. c #9CA2B4",
"{. c #9DA2BC",
"}. c #9DA9BB",
"|. c #9EA0AF",
" X c #A9A3AB",
".X c #B5A5AB",
"XX c #A3A3B4",
"oX c #ABA3B3",
"OX c #A4A3BC",
"+X c #ABA5BB",
"@X c #A5AABE",
"#X c #ACAABB",
"$X c #AAA9B6",
"%X c #B3A5B4",
"&X c #B1ACBC",
"*X c #B5A8B8",
"=X c #B4B1BD",
"-X c #AEB0BF",
";X c #B9A09C",
":X c #C3ACB6",
">X c #949CC3",
",X c #9A9DC3",
"<X c #9A9FC9",
"1X c #96A2C4",
"2X c #9CA3C4",
"3X c #9BA4CB",
"4X c #9BA5C9",
"5X c #9DAAD1",
"6X c #A4A4C3",
"7X c #A9A6C3",
"8X c #A4AAC2",
"9X c #ACABC4",
"0X c #A2A6CC",
"qX c #A4AACB",
"wX c #ABACCB",
"eX c #A8A6CB",
"rX c #B2ACC3",
"tX c #B1AECA",
"yX c #B6AAC2",
"uX c #ADB2CB",
"iX c #ACB1C6",
"pX c #B4B3C4",
"aX c #B4B3CC",
"sX c #BAB5CC",
"dX c #BAB6C7",
"fX c #A5ADD4",
"gX c #ABAED3",
"hX c #A2A7D1",
"jX c #ABB3D4",
"kX c #ABB4DA",
"lX c #AEB8DD",
"zX c #A8B4D6",
"xX c #B4B4D3",
"cX c #B5B9D4",
"vX c #BBBAD5",
"bX c #B2B5DA",
"nX c #B4BADC",
"mX c #BCBDDB",
"MX c #BAB6D4",
"NX c #ADBAE1",
"BX c #B3BBE3",
"VX c #C1BED9",
"CX c #C3B7CD",
"ZX c #BEC1D8",
"AX c #BAC3E9",
"SX c #C4C4E4",
/* pixels */
">X<X<XhXhX<XhXeXgXbXbXgXgXgXeXeXI.>XE.Y.B.Y.`.7XeXeXgXqXOXR.!./.N.d.i.N.J.+XyX7X+X'.`.`.Y.B.y.y.m.m.m.R.OXXXY.N.M.H.Y.`.Q.Q.`.`.",
">X<X<X3X0X0X0X0XgXgXgXbXVXbXeX,XE.E.Y.Y.B._.7XtXeXwXqXeX6X+XoX'.F.V.F.^.*XyXyXyXyX7X'.`.'.Y.B.N.m.y.m.H.R._._.J.Y.Y.Q.`.`.`.`.`.",
">X>X<X<X0X0X<X<XhX0X<XeXgXgX,XE.E.E.E.Y._.`.7XtX8X2XW.T.R.^.~.v.s.s.j.(.%XCX*X%XyXyXyX7X`.Y.B.m.m.i.y.m.J.OXOX+X7X7X7XOX`._.`.`.",
">X<XhX<X<X<XeXhX<X,XE.E.Y.,X`.E.,X,XY.R.`.'.7X`.W.I.B.M.N.d.e.q.s.z.x.v.b.).).).(.'.*XyX+X'.J.m.m.y.y.m.H.XX9XtXtX9X7X7X`.Q.Q.`.",
"<XfXkXhXhXhXgXbX<X0X,XE.B.E.E.,X,XQ.Q.R._._._.H.H.A.A.H.N.f.q.q.z.<.<.<.5.5.z.).x.c.!._._.`.Y.M.y.y.i.m.N.P.XXOX7X`.`.`.`.`.`.`.",
"fXNXBXhXhXfXBXBXeXgXgXhX<X,X`.E.,XQ.Y.R._.L.H.N.B.H.H.P.F.x.q.<.%.....{ U E #.:.b.v.x.4.f.H.B.M.y.m.m.m.m.m.B.J.Y.B.Y.7XeX7X6X7X",
"kXNXkX<X<XkXBXBXgXbXbXbXgXgXeXeX2X2XQ._._._.XXXXU.H.D.D.j.v.z.<.A A m m m m M W z.x.c.f.y.y.m.4.y.m.m.m.y.m.H.Y.`.Y.`.tXsXwX7X7X",
"kXkX<X>X<XfXkXfXgXgXgXeXbXMXBXbX8X6XOXOX_.+X9XpX8XR.D.d.x.x.<.,.A m j m m m m D E *.v.c.V.J.H.m.t.m.D.B.N.H._.OXtX9XxXVXVXtX7X7X",
"NX3X>X<XhXzXkXNXfXbXbXkXnXmXbXgXU.6X7XXX_.+XsXZXpX@XD.a.v.;X<...A j j j j j x Z Z E :X%XF.+XJ.B.N.m.m.J.OX+X9XpXtXtXxXvXVXMX7X`.",
"5X3X3XfXNXlXkXzXkXBXnXjXgXgXqX6X2X6XOXOX_.XXOX+XQ.XXJ.k.;Xn.%.o.] ] [ [ [ A A A Z I .X.XF.oXm.t.N.m.m.H._.OX9XsXrXtXsXMXvXxXeXY.",
"3X3X5XkXBXBXzXzXhXbXbXgX2X2X2X0XeXQ.Y.7X9X_.J.H.H.J.D.c.v.%.{ X.+.+.1.+.1.>.;.$.P I x.v.h.J.y.m.N.m.i.N.H.J.OXtX9XtXtXvXVXxX7X`.",
">X3X5XzXNXBXlXlX<XhXhX<XE.,XqXqXgXQ.Y.7XrX`.Y.L.U.J.d.v.v...] X.o.+.+.+.1.1.<.;.U ! q.c.e.i.M.OXm.m.i.m.m.m.H.Y.7XtXtXMXVXVXtX7X",
"1X5X5XNXNXkXzXzXW.>X>XI.E.4XjXkXgX,XY.7X7X`._.6X9XOX!./.n...{ +.] X.-.-.-.:.<.<.W #.x.j.a.p.m.6XN.m.m.N.N.i.y.m.`.`.7XxXMXMXMXtX",
"5XNXAXAXAXkX5X1X1X4X>XE.{.qXbXnXeX6X`.`.`.`.`.tXcXrXrX:X;X<.O.O. .| $.-.-.-.%.:.I &.v. X~.i.y.T.M.m.N.J.Y.H.N.m.J.Y.`.7XtXMXxXtX",
"5XNXAXAXkX5X1XW.fXjXfX4X1XqXnXAXgXeX6X`.7XeXxXxXvXtXCXCXn.<.1.O.} } } $.$.} } %.( n..X.X$XP.M.m.M.y.m.R.XX_.H.m.B.B.B.R.7XtXtXeX",
"1XNXNXNX5X1X1X1XzXnXnXjX4XqXmXSXgXeX6X`.9XMXVXmXMX7XCX.X,.<.1.+.-.$.@.6.6.$.*.5.*..X*X&X*XR.m.m.m.y.m.J.OX_.B.m.B.m.B.H.`.7XeX9X",
"1X1X1X1X1XI.>X5XnXlXcXnXcX2X4XSXwX9X7X`.+XsXVXVXvXcX-X=Xq.*.1...| | | -.:.6.6.z.5.c.%X%X'.oX_.J.H.y.m.OX7XR.m.H.Q.XXQ.H.M.H.{.9X",
">X1X>X1X5X1X1X5XjXmXcXqXqX4X6XqX6XOXR._.+XsXMXaXcXiX#X=Xv.z.1... . .| -.6.6.5.=.x.).*X%XoX'.^.N.y.y.N.J._.J.H.U.R.OXOXK.H.A.T.T.",
"I.1X1X1XzX5X1X7.2XnXjXW.{.uXqX{.6X{.R._.&XvXVXsXvXiX&X=X.Xb.<.o.| | | :.6.6.5.5.).'.%XoX%X+XL.d.y.y.N.N.N.N.P.J.Q.OXOXR.A.A.M.C.",
"1X5X5X1XzXAX5X5XT.qX2XU.8XcXcX8X6XQ._.`.rXCXVXvXvXtXrXdX.X;X<...|  .| -.-.:.z.x.).%XoX$X#X#XXXD.m.N.N.y.m.H.H.N.OX@XOXR.H.M.M.M.",
"zXzX5XW.4XzX4X}.].2XW.W.jXZXcXcX{.W.Q.`.+X&XsXCXsX9XyX*X).b.<.$.| O.X.-.%.*.x.).).%XoXXX@X$X].Z.d.N.N.y.D._.R.m.+XOXOXH.U.Y.{.{.",
"zXZX5X].].}.}.4XqX2XT.}.cXZXcXZXW.Q.XX_._._.&XpXMXyXdX/.b.n.%.$.| O.-.;.:.*.z.v.oX%X#X#XXXL.Z.g.i.i.y.d._.rX+XJ.J.R.H.B.H.T.OX9X",
"uXZXzX2X{.I.].zXuXuX{.}.cXvXcXvX2X{.OX#XoXoX'.oXsXyXyXc.x.z.@.@.{ { X.$.%.=.*.0.~..X&X*XXXh.u.d.i.f.y.N._.#X9XOXD.R.R.U.M.H.Y.Q.",
"1XzXcXzX2XS.I.ZXcXcX6X{.uXZXcXcX{.Q.Q.#X*X'.!.F.'.(./.f.x.x.$.$.| | X.$.*.6.z.v.x.(.*X&X!.d.d.F.f.i.d.D.^.oX#XrXR.+XrXOXU.H.A.H.",
"S.W.W.].W.A.W.uXxXuX8XOX@XpXxXuXU.U.R.oX&X Xv.s.l.9.j.x.).*.=.#.| | 6.:.$.6.5.^ 6.V.V.5.4.5.V.'.j.d.d.N.G.$X+X+X_.+XpXtXQ.M.B.Q.",
"S.W.I.I.T.A.S.8XuXuX@X[.OXuXaX8XQ.Q._.F.l.v.~..X Xa.f.s.b.=.@.@.$.@.-.-.5.6.} S ^ 4.6.Y.!.Y.f.5.0.r.e.r.!.#X&X$X_.@XsXaX_.M.B.Y.",
"}.4X].S.].{.T.T.@XiX8XR.[.pXaX@XY.Y.V.j.k.v.;X.Xs.` &.s.).q.*.*.$.@.@.=.).6.Y n t S Y _ 4.5.x.!.j.d.r.e.F.#X+XJ._.rXMXrXY.M.B.U.",
"uXuX{.S.OX8XR.Z.[.iXiX|.L.9XpX+Xm.m.f.c.b.b.,.=.H c Y 4.v.*.#.#.#.@.=.6.:X6.Y n S n n s S Y ^ =.a.s.s.e.j.oXoXF._.rXpXOXB.M.M.B.",
"uX8XT.A.OXiX[.Z.H.@X9X|.D.|.XX_.N.V.Y.x.5.#.P z < w J q.x.&.U E #.5.5.c.).#.S S S s r t t r k l K / 2.0.F.oX^.J.'.yXtXY.B.B.B.B.",
"8X}.K.A.8XuX{.R.D.[.@XL.P.D.D.d.N.V.5.^ G x z h z z I q.q.,.! E 4.v././.4.S s n 6 8 0 r p l r w 7 S ~ 9.!.~.h.e.'.7X+XE.B.Y.Y.B.",
"8X{.S.T.@X@X[.R.H.H.P.XXXX_.D.N.V.4.4.S k h k h 1 2 l Q ! ) E E 4.f.m.N.~ s s s f f p e w , < w 0 8 S 2.j.j.y.4.B.'._.4.B.7XeXB.",
"@X].A.H.[.K.u.Z.Z.u.i.XXdXpXXXG.^.5.^ S k x h 1 2 < & v V ! T Q ( ' 3.3.L 8 L s g i i e , q q e c 0 s ~ f.V.V.Y.4.V.Y.4.Y.yX7XB.",
"}.W.Z.m.H.H.H.Z.N.D.J.tXdXrXsX'.s.q.H k l < h < 2 , , p B Q / / ) ) ` Q f i f g e e s e q q i f i 9 B F j.oX/.V.f.y.y.y.y.F.XXP.",
"T.A.A.A.R.R.K.m.d.N.N.yXyX&XdX/.j.0.G w u < 2 2 2 , , p B Q ) ) _ ( ) R i i f i e r r r q 8 i f f g f f 4.(.!.%XV.y.i.d.f.F.L.r.",
"M.Z.A.[.OX[.L.m.N.m.m._.+X&XyX!.s.0.G t p < < < 2 3 , y V Q ) &.E ^ Q L i i f f r r r r q 8 i i e i s 6 ` c.F.%XV.f.m.d.D.L.G.r.",
"Z.A.T.OX@XOXH.u.J.N.y.^.'.+XyXj.s.*.F t l < < 2 < 3 3 y B Q &.,.( ( R F i i f a 0 r r 0 0 e i i ; i 0 8 ` (.j./.V.e.y.V.F.$X#XK.",
"T.{.{.@XOXQ.D.m.R.D.y.G.'.+X=Xj.s.9.b 0 u < , < , < q q N ( ,.9.T ( H B i i i f r r w t 0 e i y - a y d ` .Xc.G.V.4.i.V.L.#XsX9X",
"}.OX@X@XXXT.D.Z._.^.y.J.^.+XdXc.q.&.c w l , , < 4 < < y B Q ` ` T ( H p i i i p r k t t w q e q - q - q K v.c.j.V.f.J.J.J.9XsXcX",
"[.}.@X@X[.P.D.H.$X_.N.F.!.+XdXF.q.&.v w l , , 2 , 3 , q v Q ) ( R T F q a i 7 p r w k > t w q 7 = ; & - d q.v.s.e.V.'._.J.OXdXvX",
"[.[.@X[.R.H.P.D.XX_.h.N.F.'.=X!.q.&.v 0 l 1 , 2 , y , , B Q / K Y R B 7 i i q p n k + t t w w w * ; y i e 9.~.l.4.f.+X+XJ.[.aXvX",
"u.S.@X@X[.u.D.XXXXL.J.F.F.^././.s.&.c > k < & u 4 < y , l Q ) H R H p y a 7 7 N ! I b b k + 0 r - = - y p N ` (.4.^.+XCXXXm.tXmX",
"u.K.XX@X|.u.Z.XXF.D.D.G.^.oX^.~.l.#.c > r < : 2 , 2 < ; e H / K H G a 7 a 7 q N T E #.*.=.E n : - ; - q q p G ` j.^.~.#X+XH.9XwX",
"m.Z.[.XXK.g.P.XXe.d.D.L.oXoX!.F.c.) c 0 w , : , , , , = - F R H H N u 7 a 7 q N E } #.#.=.E b > = & = = = O r S 4.j.d.oXrXL.`.7X",
"A.Z.Z.S.P.Z.P.G.p.D.~. XoX~.G.j.v.) v > 0 4 : 1 & - < , q c K G H B y y y q q l Y E #.=.=.=.P + O ; ; 7 > = 7 e G ` j.#X#XH.J.9X",
"].P.u.u.g.Z.u.r.P.|.$XoXG.h.j.k.x.T r 0 > > , , , , 2 < - v H K H v y y - 7 q w V E #.$.=.*.E z 0 6 6 7 e e w 0 6 L 9.|.^.d.D.9X",
"#X|.u.u.r.g.u.w. X#X=X$X!.d.j.~.s.Y r r < > , : , & * O = p L R H l 7 y - 7 w > b U } } #.-.E b 0 0 7 7 e r e 0 q f ` h.d.D.D.[.",
"@X}.P.u.r.u.g.g.$X=XdX=XoX^.G.c.s.Y r l w > , $ : o * - - d G K H a - y - 7 a : t b W } *.:.} b r i e i e d p 0 d e ` h.r.h.J.D.",
"}.[.].Z.u.g.L.XX$X=XdXdXdX$X(.k.l.Y l z w 1 h o : $ k b b G R Y H 3 * y * 3 y & + + + h P #...Y r s e d r p d e d 7 9. X9.r.P.h.",
"S.g.u.u.u.S.K.|.|.$X$X$X-X=X|.l.s.^ S b k k x x U ..U ..#.P D E B 3 * 3 * & & > O > o o h C C h - 7 p - p v q v s f `  XG.r.k.h.",
"].].S.g.u.S.].|.$X-X-X-XpX-X Xk.c.5.E v k x M { X.$.W U $.W D P B 4 * * * # , & o o o   $ o $ 4 X w N v a p 6 f S e ~  X Xa.r.9.",
"}.}.].g.u.S.].[.}.ZX-X-X-X$XP.G.j.x.E n x D M M ..o.Z W $.U P P C 4 $ * % % & * & & o $ $ o o 4 & w V B d p i f s 9 ~ ~. Xh.g.r.",
"}.}.}.7.7.g.g.S.$XpX-X$XXXG.P.G.j.c.^ n k b k h U U Z W E P Z P a * $ * # # & & & X   o $ $   o = X e i 7 y 6 8 8 F 2. XG.r.h.r.",
"}.}.].7.7.C.g.7.$XiX-XXX^.G.P.^.!./.5.Y v + 1 z Z U U U Z z x P u 4 * * # & & % & q * o   $ $   &   3 a y 7 3 a K 8. X Xr.9.r.p.",
"].}.}.S.7.S.g.u.P.$XXXG.G.G.G.G.V.!.F.0._ G z z C Z U I x 1 C I 3 4 $ * # * - % , V B & X # $ # X O T ` / / ) ` l. X Xa.w.r.r.9.",
"}.}.].7.C.S.S.7.u.P.P.P. XXXG.D.V.e.~..Xx.*.! z z x z z < 1 V V * # * * X # ; % % a u % #     # O 0 &..Xk.v. X X XG.h.r.h.h.Z.h.",
"}.}.S.7.g.].K.g.u.P.S.|.#X&XXXG.^.d.oX*Xs.s.n.) z 2 $ $ o 1 C z * # # # X # & X X     X - % # ; = 6 ) ~.k.k.k.l.k.h.i.G.^.i.w.D.",
"].}.].u.u.].[.|.r.g.|.=XdX$X|.|.h.^. XoX*X Xq.,.P c 1 , * - B B # # * % % % % # @ * ; 3 ; ; 7 7 f - ) ~.l.k.~.k.k.k.h.P.G.G.D.i.",
"].].S.7.u.[.}.K.D.S.[.pXdX-X|.G.F.G.^.#X*X.Xl.,.Q G , , * $ C B * # % % % # % % ; ; - ; ; ; g g B 3 ) k.k. XG.k.k.P.P.G.G.L.D.D.",
"S.S.C.7.u.].].S.P.P.|.#XpX-X Xh.F.D.~.&X.X(.q.9.Q N & - & & B J * * % % * # % % ; 3 7 ; 7 ; a a f 9 / k.k.k.~.k.G.G.k.P.L.Y.P.D.",
"S.S.u.7.u.S.A.C.g.g.P.$X=X#X|.h.h.a.G.oX Xl.q.9.G p O q q - B J * % ; % @ # % % ; ; ; ; 7 g g g i ; K l.k.k.G.h.P.P.D.D.P.P.D.M.",
"].].C.7.7.7.7.7.g.i.g.J. XXXG.h.a.r.G.(.j.4.4.2.c 0 O p q 7 B J & ; @ # # # # # @ ; ; ; 9 8 8 8 g 9 F w.k.l.k.h.D.D.B.B.N.Z.m.m.",
"].S.S.7.7.7.7.7.g.Z.g.Z.Z.P.g.9.e.4.l.j.4.4.5.^ f s 6 7 6 7 F B ; ; * @ X @   @ ; ; ; ; 9 9 9 8 g 9 f ` l.r.k.g.h.m.m.B.M.m.M.i.",
"7.7.7.7.3.3.3.8.g.g.p.2.2.w.w.2.4.` 4.4.&.4.4.S s s O 6 ; 7 F B ; & # #   @   @ a 7 5 5 5 5 9 8 g 9 f ' a.8.r.r.w.p.M.2.M.2.7.4.",
"7.7.3.3.' ' 3.3.w.p.4.3.' 3.` ' 3.~ ' / _ f.4.S O 6 O . . 8 F f = & # @         B a 5 5 5 5 9 8 g 5 5 / 9.' 2.2.4.2.2.2.2.2.2.2."
};
