/* XPM */
static char *_0948b5549ef4ad9c1529edaa6d44e60zuy9utZelMP2M2Uu[] = {
/* columns rows colors chars-per-pixel */
"64 64 133 2 ",
"   c #020202",
".  c #080807",
"X  c #0D0D0C",
"o  c #0F100F",
"O  c #10100F",
"+  c #0D0F10",
"@  c #0E1111",
"#  c #151514",
"$  c #181615",
"%  c #171817",
"&  c #191817",
"*  c #151718",
"=  c #161919",
"-  c #1C1D1B",
";  c #221E1C",
":  c #2B1E1A",
">  c #1F201E",
",  c #20211F",
"<  c #2D211F",
"1  c #191F20",
"2  c #241F21",
"3  c #1C2223",
"4  c #152E2F",
"5  c #152F30",
"6  c #0F3538",
"7  c #113335",
"8  c #1F393C",
"9  c #242423",
"0  c #2C2424",
"q  c #272826",
"w  c #282927",
"e  c #212728",
"r  c #2D2528",
"t  c #262A2A",
"y  c #2A2B2A",
"u  c #302526",
"i  c #31272A",
"p  c #33292C",
"a  c #382B2F",
"s  c #2F302F",
"d  c #30302F",
"f  c #272C30",
"g  c #2B2F30",
"h  c #372D31",
"j  c #392D31",
"k  c #2E3233",
"l  c #27373A",
"z  c #29373A",
"x  c #24393D",
"c  c #343335",
"v  c #393336",
"b  c #33363A",
"n  c #3A3639",
"m  c #363B3C",
"M  c #393C3E",
"N  c #0F3F4C",
"B  c #1F3E45",
"V  c #373E40",
"C  c #383F40",
"Z  c #403F42",
"A  c #0E414E",
"S  c #0E4354",
"D  c #1D4656",
"F  c #374143",
"G  c #3C4344",
"H  c #3F4648",
"J  c #3F4A4C",
"K  c #234353",
"L  c #3F4E50",
"P  c #045464",
"I  c #0C5261",
"U  c #085769",
"Y  c #055C6F",
"T  c #0A5C6F",
"R  c #105160",
"E  c #035D73",
"W  c #066174",
"Q  c #414345",
"!  c #414749",
"~  c #464D4F",
"^  c #464E50",
"/  c #494D51",
"(  c #435254",
")  c #435255",
"_  c #465154",
"`  c #495254",
"'  c #485356",
"]  c #495456",
"[  c #4B5658",
"{  c #4D5458",
"}  c #4C575A",
"|  c #4D5A5D",
" . c #4E5A5D",
".. c #4F5A5D",
"X. c #4E5C5F",
"o. c #4F5D60",
"O. c #515F62",
"+. c #516165",
"@. c #526265",
"#. c #54666A",
"$. c #57696D",
"%. c #57696E",
"&. c #586A6E",
"*. c #076685",
"=. c #0F6180",
"-. c #0B6886",
";. c #006D91",
":. c #017093",
">. c #007095",
",. c #0E7395",
"<. c #00739A",
"1. c #00749C",
"2. c #00749D",
"3. c #02769D",
"4. c #04789F",
"5. c #0479A0",
"6. c #087CA0",
"7. c #1385A2",
"8. c #1489AA",
"9. c #1A91AE",
"0. c #188FB1",
"q. c #1790B1",
"w. c #1B93B3",
"e. c #1E96B3",
"r. c #1C95B4",
"t. c #1F98B7",
"y. c #2DABC6",
"u. c #31AFC8",
"i. c #36B4CC",
"p. c #37B5CC",
"a. c #38B6CD",
"s. c #39B8CE",
"d. c #3BBBD0",
/* pixels */
"% = = = = = % % # # # X   + = = = = = = = = = = = = = = = = = = = = - # = = = = = = = = = = # = @ @ o . . = = = = = , = # # = = ",
"y ! H H G ! F G F m V 3 . g ! H H ! H H H H H H H H H H H H H H H H H H G ~ H G ! G H H ! G C G C C k o @ ! G ! J G G G F F J n ",
"t C F C V F C M V C C 9 . g H V F C C C C C C C C C C C C F F C C C C C M F F F C C C F C C C F C F k o # G G M M F F C C F M k ",
"t C C C C M H ~ F C C 9 . k G m ! ! F C C C C V C V C C C C C C C C C C F V V V F C C C M C ~ G C F b O # ! M M ~ G C C C F F k ",
"t C V C C v / ..H V V 9 . g G c { { G C M F C C V C C C C F C C C C C C C C C C C C C C M n +.~ C C k @ % G n G +.J C C C C C k ",
"t C C C F v n Q G C C e . g H j M ! G M F V C C C C C C C C C C C C C C C C C C C C C C M h G G C F c o # ! M v ! G C C C C F k ",
"t C C C V m v m V C C 9 . g H b v M C F C C C C C C C C C C C C C C F C C C C C C C C M M v n C C C k o @ H F c v C M C F F C k ",
"g G G H G G G G G G G t X m ^ G G G G G G G G G G G G G G G G G G G G G G G G G G G G ! G G G H H G M % > ( G G G G J G G G G c ",
"s ! ! ! ! ! ! ! ! ! ! y % G [ H ! ! ! ! ! ! ! J ! ! ! ! J ! ! ! ! J G ! ! G ! ! H H ! H ! ! ! ! ! J M & > X.! H ! H H ! J ! ! m ",
"s G G G G G G Q H G G y X m ^ G G G G G G H G G G G G G G G G G G G G ! ! G G ! G H H G G G G G G G M # > ] H G G H G G G G G c ",
"k ~ ^ ~ ^ ^ ~ ^ ^ ~ ~ k # ( +.~ ^ ~ ^ ~ ^ ~ ^ ~ ^ ^ ~ ~ ^ ~ ~ ~ ~ / _ ~ ~ ~ ~ ~ ~ ~ ~ ~ ~ ~ ^ ~ ~ ~ G > 3 $.^ ^ ^ ^ ~ ~ ^ ~ ^ C ",
"k ~ ~ ~ ^ ~ ~ ~ ~ ^ ~ y X L +.! ~ ~ ~ ~ ^ ~ ~ ~ ^ ^ ~ ~ ! Q Z Z Z Q G G ~ ~ ~ ~ ~ ~ ~ ~ ^ ~ ~ ^ ^ ^ G % e $.^ ~ ^ ~ ~ ~ ~ ~ ^ C ",
"k ~ ~ ~ ^ ~ ~ ^ ~ ^ ^ d $ ( O.^ ~ / ~ ~ ~ ^ ~ ^ ~ ~ ! C n j a a a a a m G ! ~ ~ ~ ~ ~ ~ ~ ~ ^ ~ ~ ^ G , f $.' ^ ~ ~ ~ ~ ^ ! _ C ",
"k ~ ~ ~ ~ ~ ~ ~ ~ ^ ^ h $ ( O.~ ~ ~ ~ ~ ~ ~ ~ ^ ^ Q n j a r 0 0 < < q a a v Z / ~ ~ ~ ~ ~ ~ ~ ~ ~ ^ ! , t $._ ~ ~ ~ ^ ~ ~ ^ ^ C ",
"k _ ~ ~ ^ ~ ^ ~ ~ ^ ~ c $ ( O.~ ^ ~ ^ ~ ~ ^ ^ / Z j h u 0 5 N S S A 7 9 0 a a C ~ ~ ~ ~ ^ ~ ~ ^ ~ ~ Q , y $.^ ~ ^ ~ ~ ^ ~ ~ ^ C ",
"k ~ ~ ~ ~ ~ ~ ~ ~ ~ ^ c $ ( O.~ ~ ~ ~ ~ ~ ~ ^ Q j a 0 5 A E ;.2.4.1.W S 7 0 a a Z ~ ~ ~ ~ ^ ^ ~ ~ ~ Z , s &.^ ^ ~ ~ ~ ~ ^ ~ ~ m ",
"k ~ ~ ~ ~ ~ _ ~ ~ ~ ~ s # J | ~ ~ ~ ~ ^ ~ ~ H v j 0 5 P <.1.<.2.2.2.q.q.W 6 r p a Q ~ ~ ~ ^ ~ ^ ~ ~ Q ; q @.( ~ ~ ~ ~ ~ ~ ^ ~ C ",
"k ~ ~ ~ ~ ~ ~ ~ _ ~ ~ s $ J ..~ ~ ~ ~ ~ ~ ~ M a r 7 P ;.1.1.2.2.2.w.p.d.r.W 6 0 a M ! ~ ~ ~ ~ ~ ~ ~ M ; q @.~ ~ ~ ~ ~ ~ ~ ~ ~ C ",
"k ~ ~ ~ ~ ^ ~ ~ ~ ~ ~ s # J ..~ ~ ~ ~ ~ ~ ! M v y I ;.1.1.<.2.2.r.i.d.d.p.6.E t v n ! ~ ~ ~ ^ ~ ~ ~ F ; w @.^ ~ ~ ~ ~ ~ ~ ^ ~ C ",
"k ~ ~ ~ ~ ~ ^ ~ ~ ~ ~ s # ~ ..~ ~ ~ ~ ^ ~ M v k 8 *.1.1.5.2.2.w.a.s.d.p.t.5.;.B s v n ~ ~ ^ ~ ~ ~ ~ M & w @.^ ^ ~ ~ ~ ( ^ ~ ~ C ",
"c ~ ^ ~ ^ ~ ~ ^ ~ ~ ~ s # J ..~ ~ ~ ~ ~ ~ M v p I ;.5.1.<.<.w.s.d.d.s.t.1.1.<.Y t v m ~ ~ ~ ~ ~ ~ _ C , , @.( ^ ^ ~ ^ ~ ~ ~ ^ M ",
"k ~ ~ ~ ~ ~ ~ ~ ~ ~ ~ s # G } ~ ~ ~ ^ ~ ~ G M v =.5.1.1.1.w.a.d.s.s.t.4.1.4.w.,.l C G ! _ ~ ~ ~ ~ ~ M ; ,  .~ ~ ~ ~ ~ ~ ~ ^ ~ C ",
"k ~ ^ ~ ^ ~ ~ ^ ~ ~ ~ s $ G } ~ ^ ~ ~ ^ ~ G V v =.1.1.1.t.i.d.d.s.t.4.<.4.t.u.,.b M F ~ ~ ~ ~ ~ ~ ^ Q , q  .~ ~ ~ ~ ~ ^ ~ ~ ~ C ",
"k ~ ~ ~ ~ ~ ~ ~ ~ ~ ~ y O G } ~ ~ ~ ~ ~ ~ G V c =.1.1.r.p.s.s.s.t.4.<.4.t.i.i.,.b M G ! ~ ~ ~ ~ ~ / C & q  .~ ~ ~ ^ ^ ~ ~ ~ ~ C ",
"k ~ ~ ~ ~ ^ ~ ^ ~ ~ ^ y O G } ~ ^ ~ ~ ^ ~ G M c I :.w.i.d.s.s.t.4.<.4.t.a.a.9.T c m G ~ ~ ~ ~ ~ ~ ^ M # 9  .^ ^ ~ ~ ~ ~ ^ ~ ^ M ",
"k ~ ^ ~ ~ ~ ~ ~ ~ ~ ~ y # m ` ~ ~ ~ ~ ~ ~ G M M l -.y.s.s.s.t.4.1.1.t.a.d.i.,.B c C G ! ~ ~ ~ ~ ~ ~ F % 9 ` ~ ~ ^ ~ ~ ^ ~ ~ ^ C ",
"c ~ ~ ~ ^ ~ ^ ~ ^ ~ ~ y O C ] ~ ~ ^ ~ ^ _ _ G V c R 7.p.s.t.4.<.4.t.a.d.a.9.T c m G _ ~ ~ ~ ~ ~ ~ ^ C % 3 ] / ~ ~ ^ ~ ~ ~ ~ ^ M ",
"k ~ ^ ~ ~ ~ ~ ~ ~ ~ ^ y # m ` ~ ~ ~ ~ ~ ~ ] G M n x I 7.q.4.<.4.t.a.d.a.9.Y B b C G ` _ ~ ~ ~ _ ~ ^ C % 9 _ ~ ~ ~ ~ ~ ~ ^ ~ ~ C ",
"k ~ ~ ~ ~ ~ ^ ~ ~ ~ ^ t # V ] ~ ~ ~ ~ ^ ~ ~ ` G M M l I ;.1.4.t.s.s.r.8.T x b C G ~ ~ ~ ~ ~ ~ / ^ ^ G $ 9 ] ~ ~ ^ ~ ^ ~ ~ ^ ^ M ",
"k ~ ~ ~ ^ ~ ~ ~ ~ ^ ^ y # m ` ~ ~ ^ ~ ~ ~ ~ ` ` G M n l K U :.8.9.8.W D x v V G ` { ~ ~ ~ ~ ~ ~ ~ / Z # 9 ] ~ ~ ~ ~ ~ ~ ~ ~ ^ C ",
"k ~ ~ ~ ~ ~ ^ ~ ~ ^ ~ y % n ~ ~ ~ ~ ~ ^ ^ ~ ^ } ] G C M v l K K K K x v n C G _ { ~ ^ ~ ~ ~ ~ ~ ~ ~ C % w ! ~ ~ ~ ~ ^ ~ ~ ~ ~ M ",
"k ~ ~ ~ ^ ~ ~ ^ ~ ~ ~ d & m ~ ~ ~ ^ ~ ~ ~ ~ ~ ~ ' ] G M F M v n n v m V V F _ ` ^ ~ ~ ~ ~ ^ ~ ~ ~ ~ G , 9 ~ ^ ~ ^ ~ ~ ^ ~ ~ ~ C ",
"c ~ ^ ~ ^ Q ] [ ! ~ ~ s & M / ~ ^ ~ ~ ~ ~ ~ ~ ~ ~ ` ^ ` G C C F C F V G ~ ~ ` ~ ~ ^ ~ ~ ^ ~ ~ ~ ~ ^ Q ; w ! ! ! O.! ~ ~ ~ ~ ^ M ",
"c ~ ~ ~ ~ n Q ! Q ~ ~ d & n / ~ ~ ~ ~ ^ ~ ^ ~ ^ ~ ~ ^ _ ~ ] ` [ [ [ ] ~ _ ~ ~ ~ ~ ~ ~ ~ ~ ~ ~ ~ ~ ^ C - 9 ~ Q n ! Q ~ ~ ^ ~ ^ C ",
"k ~ ~ ~ ~ Z j M ~ ~ ~ s ; n / Q .._ ! _ ~ ^ ~ ~ ~ ~ ~ ~ ~ ` ` } ] [ ` ~ ~ _ ~ ~ ~ ^ ~ ~ ~ Z O.! ~ ~ Z - 0 ~ Q j M ! ^ ~ ~ ^ ~ C ",
"k ~ ^ ^ ~ ! ! ! ~ ~ ~ s > M / n Q G H ~ ~ ~ ~ ~ ~ ~ ~ ~ ~ ^ ~ ~ ~ ~ ~ ~ ~ ~ ~ ~ ~ ~ ^ ~ ! v ~ G ~ ~ Q ; y ~ ~ Q ! ~ / ^ ^ ^ ^ M ",
"V $.$.%.$.$.$.&.} X.[ s , M ~ n h V ^ ^ ^ ^ ~ ^ ~ ~ ~ ~ ^ ~ ~ ~ ~ ~ ~ ~ ~ ~ ^ ~ ^ ^ ~ ~ ! j n ! ~ ~ G < q ` O.] $.%.$.$.&.&.&.( ",
"- 3 3 3 3 3 3 3 > > = o $ M ^ ! Q ~ ^ ^ ^ ^ ^ ~ ~ ~ ` ~ ^ ^ ^ ~ ~ ~ _ ~ ~ ^ ^ ^ ^ ^ ^ ^ ^ Q ! ^ ~ ^ G ; X = 3 = 3 3 3 3 9 3 3 3 ",
"X                       . k O.[ O.&.$.$.#.%.$.[ +.` +.` +.( ! ! ~ ~ +.( #.&.&.&.$.$.+.` #.&.$.+.{ +.F X                       . ",
"# + . X # # X X # o .     X - = - 3 3 3 3 3 3 = - = - = - = = # # * > * > 3 3 3 3 3 3 * 3 3 3 1 = - #     # X X # X . X # O X O ",
"- - . # 9 - # - 9 - . . .                                                                             . % % % 9 3 X X 9 ; % - ; ",
"9 - X # y 9 # 9 y - . = - O O O # + X X # X X X # O   X # X o O # X   X # O X O # X   X # O X O # X   % 9 - > w 9 X X w 9 - - 9 ",
"- ; X # y , - 9 w - . - w - & , 9 & X # 9 - $ 9 9 & . - 9 - % 9 9 % . - q - - 9 9 # X > 9 - - 9 9 X X 9 9 - > w 9 X O w 9 - 9 9 ",
"3 9 # # w 9 - 9 w > # - w 9 - 9 y - # - y 9 - 9 y - O q y > - w q & # q w - - q 9 = # q w - - w 9 % $ w 9 - > y 9 # = w 9 - - 9 ",
", - X % w , - 9 w - X - w , - 9 w - X - q > - 9 q - . , q > - q w % X 9 q - - w 0 # X 9 q - > w 9 # O w q - > w 9 O # w 9 - , 9 ",
"- 9 % & y 9 - 9 y , # - w , - 9 y , O , y , - 9 q - O 9 q > - 9 y & # 9 w - - q q - # q q - - w w % # w 0 - - y 9 # # w 9 - , 9 ",
"9 9 O & w 9 - , w , o & y , - 9 w , X > w > - q y > X , y > - q y - X 9 w - - q q - X 9 q - > w q % O 9 9 - , w q # # q 9 & , 9 ",
"- 9 # - y ; - 9 w 9 # ; w 9 - 9 w , # , w , - 9 y , O , q > - q q - # 9 q > - q q & # q q - > q q & $ w 9 - , y 9 % & y 9 - ; 9 ",
"3 9 # - w 9 - 9 w , % , w ; - 9 y > % 9 w > - 9 y , $ 9 w - - q y - = 9 q > - q 0 - & w q - ; w 9 & & y y - ; y 9 $ & w 9 - , 9 ",
"> ; % - q 3 - , y ; # , 9 - & 9 y - # > w > - q w % # 9 , - - q w % # q q - - q q % & 9 3 - - w q % % q 9 - - y 9 % - 9 - - , 9 ",
"- 9 % - y 9 - 9 w > # , q , - 9 q - # 9 w - - 9 q - # , 9 , - q q - # 9 q - - q q = # 9 9 - - w 9 $ % q 9 - > q 9 % % w 9 - , 9 ",
"& & X % 9 - & 9 9 % X % 9 - - 9 > # X - 9 - - 9 , $ X , , - - 9 , # X , , - > 9 - # X 9 - - ; 9 - # X 9 - - > q - O O 9 - & , 9 ",
"- - @ = 9 - & 9 q & # # 9 9 & 9 9 - + - 9 , - 9 q = X - 9 - - q 9 # O > 9 - - q 9 # o > 9 - - q 9 # o > 9 & - q , O # 3 9 & , 9 ",
"& & X # 9 & # - 9 # . % , & % - ; = . & ; $ # 3 , O . - > = # 3 ; O . > > = # 9 - o . , - = $ 9 - X X 9 - & = 9 $ X X 9 - % % 9 ",
"3 - @ - q 9 = 3 9 = + 1 q 3 % 3 9 = X 3 9 3 # - 9 # o 3 q > # 3 e @ @ 9 t > * 9 9 @ # e 9 3 = 9 9 @ # e 9 - = t 3 O * e 9 = = 9 ",
"V $.#.#.#.#.#.#.$.o.o.$.$.$...o.o.+.| +...+...[ [ ] ] [ #.[ +.X.#.[ #.$.#.#.#.#.$.#.#.$.%.#.#.#.#.#.#.#.$.&.#.#.+...#.$.$.+...( ",
"c ` ` ` ` { ` { ! ^ ` ] ` ` ^ } ^ ` ` ^ } ` ` ^ ^ ! ^ ^ ` ^ } ^ ` ~ ` ` ` ` ` ! ^ ! ` _ } ` ` ` ! ^ ! ` { } ` ^ ! ( ` _ } { ` V ",
"k G ! { ^ ! ~ ! H ^ ~ _ ~ ~ ~ ~ ^ ~ ^ _ ~ ^ ^ G G ! ~ ` ~ ~ ~ ~ ~ ~ ^ ` ~ ~ ~ ! Q ! ^ ` ! ^ ~ ~ ! G ^ ` ! ^ ! G ~ ^ ^ ^ ! ^ ~ C ",
"t ~ ! ..{ ! ~ ~ ~ ^ ! @.( ! ~ ~ ~ ~ ~ O.~ ! ~ G ! ~ ~ +.! ~ ~ ^ ~ ~ ~ +.H ~ ~ G ~ ~ ^ O.! ~ ~ ! H ! ^ O.G ~ ~ ~ ~ ~ } O.G ~ ~ M ",
"y ~ C n V ! ~ ^ ~ ~ n M G ! ~ ~ / / n n C ! G ! G ! n M G ! ~ / ~ ~ v M G ~ ~ ~ / ! v Z G ~ ! G ~ ! v G G ~ ~ ~ ~ Q v M ! ~ ! c ",
"t ! Q v M ~ ~ ^ ~ ~ Z v Q ~ ~ ~ ^ / Z v Q / ! H ! ~ n v ! ^ ^ ^ / / n n ! ~ ~ ~ / ~ v n ~ ! G G ^ Q v n ~ ^ ^ / ^ Q j Z ~ ! G m ",
"g G Q Q Q Q Q Q Q Q Q Z Q ! ! ! ! ! Z Q Q Q V H ! ! C G M ! ! Q ! ! Q Q F ! ! ! Q ! Q Q ! Q M Q ! ! Q Q Q Z Q ! ! Q Q Q G G G c ",
"; u : : : : : 0 u u u u p p a p i i 0 u 0 u ; 2 1 0 ; * = * r - 0 p i i p p p i 2 i : a i 2 u : i : : : : : < u < u 2 a i r p 0 ",
"- $ # # $ $ $ $ $ $ * $ $ * $ $ $ $ $ # $ $ # $ # $ $ # # # $ $ # # % % & $ $ $ $ $ # $ $ $ $ $ $ $ $ # $ $ $ * $ $ $ * * # - # "
};
