/* XPM */
static char *_e26688df0cb42dcbc666a1ca9501ce1Kw59bnhd2iiYJcGp[] = {
/* columns rows colors chars-per-pixel */
"64 64 99 2 ",
"   c #020202",
".  c #0D0D0D",
"X  c #10100F",
"o  c #141413",
"O  c #1C1C17",
"+  c #1E1E18",
"@  c #1E231C",
"#  c #24241C",
"$  c #29251C",
"%  c #26281D",
"&  c #2A2B1E",
"*  c #322E1D",
"=  c #2E331F",
"-  c #34301F",
";  c #133222",
":  c #153823",
">  c #1F3A23",
",  c #2A2D22",
"<  c #2F3521",
"1  c #223A23",
"2  c #333523",
"3  c #383727",
"4  c #383827",
"5  c #333729",
"6  c #373C2C",
"7  c #3A3D2D",
"8  c #3D3E31",
"9  c #413E2F",
"0  c #423E31",
"q  c #0D4E28",
"w  c #1A462A",
"e  c #0F5528",
"r  c #14572E",
"t  c #145C2E",
"y  c #1A5D2D",
"u  c #0E5830",
"i  c #125C31",
"p  c #284727",
"a  c #254928",
"s  c #294929",
"d  c #3B402F",
"f  c #3D4131",
"g  c #16602F",
"h  c #136534",
"j  c #186532",
"k  c #146B33",
"l  c #1E6B36",
"z  c #1D6E38",
"x  c #1A7336",
"c  c #17703A",
"v  c #1B763B",
"b  c #1D783C",
"n  c #216E36",
"m  c #206E38",
"M  c #257135",
"N  c #2C7431",
"B  c #237A37",
"V  c #297F36",
"C  c #227B39",
"Z  c #287F39",
"A  c #44402F",
"S  c #434435",
"D  c #494536",
"F  c #474638",
"G  c #49463A",
"H  c #4F4C3F",
"J  c #504D3F",
"K  c #4F523D",
"L  c #51533E",
"P  c #504E40",
"I  c #545442",
"U  c #585744",
"Y  c #5C5C46",
"T  c #646448",
"R  c #2C8034",
"E  c #2A833B",
"W  c #2C8A3E",
"Q  c #53961F",
"!  c #5C9C1C",
"~  c #609E19",
"^  c #7CAF0C",
"/  c #64A018",
"(  c #458D26",
")  c #448E29",
"_  c #4D9324",
"`  c #519621",
"'  c #549820",
"]  c #418F37",
"[  c #44933A",
"{  c #479A3E",
"}  c #2A8840",
"|  c #338F40",
" . c #359341",
".. c #439940",
"X. c #86B406",
"o. c #8BB604",
"O. c #8DB802",
"+. c #81B209",
"@. c #92BB00",
/* pixels */
"# # , # , # # , @ # , # # + # O , , + @ # # # # , , O @ @ , @ # # # @ , # @ # # , , # , @ # # # # # # # , @ # @ # # @ @ # + , @ ",
"0 F S S F F S S G 0 S S 0 8 f 7 f F 0 P P 0 F F 8 0 8 0 f f F F 0 G 8 P 0 P 0 G f F 0 F P 0 F F P 8 G G 8 P 0 P 0 G f 8 8 8 0 8 ",
"5 6 6 6 6 6 6 6 6 8 6 6 6 7 7 6 6 6 7 6 5 6 6 6 6 6 6 6 6 6 6 6 7 7 6 6 8 6 6 6 7 6 6 6 5 6 7 6 6 6 5 6 6 6 6 6 7 6 6 6 6 6 7 5 ",
"5 6 6 6 6 6 6 6 6 6 6 6 6 6 6 6 6 6 6 6 6 6 6 6 6 6 7 6 7 6 6 6 6 6 6 6 6 6 6 6 6 6 6 6 5 7 6 6 6 6 6 6 6 6 6 6 7 6 6 6 6 7 7 5 ",
"5 8 6 6 6 6 6 6 6 6 6 6 6 6 6 6 6 6 6 6 6 6 6 6 6 6 6 6 7 6 6 6 6 6 6 6 6 6 6 6 6 6 6 6 7 6 7 6 6 6 6 6 6 6 6 6 6 6 6 6 6 6 6 5 ",
"5 6 6 6 6 6 6 6 6 6 6 6 6 6 6 6 7 6 7 6 6 6 6 6 6 6 6 6 6 6 6 6 6 6 6 6 6 6 6 6 6 6 6 6 6 6 6 6 6 6 6 6 6 6 6 6 6 6 6 7 6 6 6 5 ",
"5 6 6 6 6 6 6 6 6 6 7 7 7 7 6 6 6 6 6 6 6 6 6 6 6 5 6 7 6 5 6 7 6 6 5 6 6 5 6 6 7 6 7 7 6 6 6 6 6 5 5 6 6 7 6 6 6 6 7 6 6 6 6 5 ",
"8 f S S S S S S F f f F f f F f f S S S S S S f f P 8 f f P f f F f P f f 8 P 8 S S f f F f S S f P f F f F f F F f f F f F 8 8 ",
"8 P 8 8 P 0 0 G F f f P f P 8 F S S S S S S S S S S S S S S S S f f F F S S S F S F F S S S F S G S S S S G 0 G F f f P 8 P 8 8 ",
"8 f S 7 8 G 8 8 F f 8 8 f f f f f 0 S S S S 8 8 S S S S S S S S P 8 f f S S S f S f S f 0 8 S f 8 S 8 8 8 8 S 8 F f 8 8 8 f f 8 ",
"P P P P P P P P P P P P P P P P H P H H P P P P H P P P S 0 9 9 7 0 0 P H H H H P P P P P H P H P P P P P P P P P P P P P P P P ",
"8 P P P P P G P P P P P P P P P H H P H P P P P P G S 0 2 * * * * * , 5 0 S H P P G P P H H H H P P P P P P P G P P P P P P P 0 ",
"G P P P P P G P P G P P P P P P P H H H H H H H P 0 2 * * $ # $ $ $ # * * 2 0 H P P H H H P P H P P P P P G P P P P P P P P P 8 ",
"G P P P P G P P P P P G P P P G H H H P H H H H 7 - * $ # ; w w w w ; , $ * * 0 P G P H H H H H P P P P P P P P P G P P P P P G ",
"8 P P G P P P P P P P P P P P P P H H H H H H 9 - * $ ; w h v b v v i w ; # * - 8 H H H H H H H P P G P G P P G P G P G G P P G ",
"G P P P P P G P P G P P G P G P H J H H H H S 2 * # ; i b b b b v C v v u ; $ * - S H H P H H P P G P P P P P P P P P P P P P G ",
"G P P G P P G P H H P H P H H H H P P H H P 3 - # ; i v b b v b b b b b v i ; # - 3 G P P H P H P P P P P G P P H H H H H P H G ",
"G P P P P P P P H P H H H H P H H H H H 0 0 - * # i v b b b b b b b b b v v i @ , - 0 H H H H H G P P G P P P P H H H H H H H G ",
"G P P P P G G P H H H H H H H H H H H H P 3 - , : x b b b b b b b b b b v b z : * * 3 H H H P H P P P P G P G P P H H P H H H G ",
"G P P G P P P P H P H P P H P H H P H P G - * - i v b b b b b b b b b b b C ( y , * - G P H H H P P G P P P P P H H H H H H H G ",
"G H H H P P P P P P P H H H H H H J H H H 3 * 2 m b b b b b C b b C b b B ! ^ N - * 2 H H H H H G P G P P P P P H H H H H H H G ",
"G H H P P G H P P U P J H P H P H H H H G - * 2 m b b b b v v b b b b C ! O.+.N < * 3 H P H H P P P P P G P G P H H P H H H H G ",
"G P H H P P H H U P H P P H H H H H H H G 3 2 2 m b b b b b b b v v C ' O.@.^ N 2 2 3 H H H H P P P P P P P G P H H H H H H H G ",
"G H H H P P P Y I 0 0 H H H H P H P H H H 3 2 2 m C v b b b b b b C ! O.@.@.+.N = 2 4 D P H H H G P G P P P P P P H H H H H H G ",
"G H H H H P I U 0 0 H P H P H H H P H H G 4 2 = M b b b b b b b C ' O.@.@.o.` M < 2 3 H H H H H P H H H H H H H H H H P H H H G ",
"G P H H P P P 0 0 G H P H J H H H H P H H 4 2 - g k v b b b b B ' @.@.@.X.` C m < 2 3 H H H P H H H H H P H H H H H H H H H H G ",
"G H P H P P P 0 0 0 H H H H H H H H H H G 6 6 < j b k k x b b V o.@.@.o.` B b m < 2 8 G P H P H H H P H H H H P H P H H H H H G ",
"G H H H P P P 0 0 0 H H H H J H P H P H H d 5 < x E k k W k h v ' @.X.` B b h i < 6 7 P H H H H H H H H H H H H H H H H H H H G ",
"G P H H H H G 0 0 P J J J J J H H H H H G 8 6 < g k v b W x B k C _ _ C k } k j < 6 6 G P P P P H H H H H H H H H H P H H H P G ",
"G H H P H H H G 0 D J J J J H H P H H P G 8 6 < j x b C _ E W x } k k j [ | b m 5 6 8 P P P G P H G G G H H H H H H H H H H H G ",
"G H H H P H H 0 0 D J J J H H H H H P H G 7 6 < n b C ! +./ Q E | ] j Z { R _ n 5 5 5 P P G P G S 8 8 G 8 H G H H H H H H H H G ",
"G P H H H H H G 0 D J J H H J H H H H H H f 6 < l C ! O.O.@.X.R C ..[ Z B ~ ^ N , 6 6 G P P P 8 G P G G G H G G H H H H H H H G ",
"G H J H J J J D 9 D H P H J H H H H H H H 6 6 < M ! o.@.@.o.Q b b b ..[ R ` _ n = d d G H H H F H D L J H H J P H D H H H H H F ",
"G H H H G J J A D D H H H H H J H P H P G d 6 < N +.@.@.o.` C b Z _ Z .. .b b m = 6 d H H H F S F D H J H H H H H D H H H H P G ",
"G P H H J J J 0 S D H H H H H H H P H H H d 6 < N +.@.O._ C b C ~ X.' Z } h v m 2 6 7 G H H F F H H H H H J H H P P H G P P P S ",
"G P J J J J J 0 D J H H H J H H P G H P H 6 6 < N +.O.` b b C ~ O.@.X.Z C C k l 2 5 d H H H H F H H J H H H J H H H H D P P P G ",
"G P H H H J H S D H J H J H H J P G P P H f 6 < N ^ ` b v b ~ O.@.o._ B b } u l 2 5 d H H H G F H H H H H H J H P P P P S P P G ",
"G P P H H H H 0 9 J G J H J H H P P P P G 7 6 < M ) C b E ~ O.@.o._ b b b v k t 2 6 7 H H H H F H H H H H H H H P P G S G P P G ",
"0 H H H H J J 0 D H J J J J U J P P P G H f 5 < z b b C ! O.O.o._ C b b b b v e < 5 d H H H H G H D H H J H H H G S G S 0 P P 0 ",
"P H P H J J J D 0 H J J J T L H G P P P G d 6 < r v Z ! O.@.O.` b b b b b b c q < 6 7 G H H P G G H H H H H J H P G G P P P P P ",
"G P P P P P P 0 D J J J U L 9 H P P P P G 6 6 < > M ! O.O.O.` b b b b b b b x 1 5 6 d H P H H D F P 8 P 8 P 8 P S S S G P H P F ",
"0 P P G G P P 0 D G H H D 9 9 H P P P P P H f 6 = y _ O.o._ b b b b b b b v r = 5 d L H H H H H P P F 8 P P 8 8 S 8 F G P H P F ",
"P P P P P P P 0 D H H H D 0 D J P P P P P I f 6 5 > r ( ) b b b b b b b v r > 5 5 d L J P H P H P P P 8 P P P 0 G S G H P P P S ",
"G P P P P P P P H H H H H S D J G P P G H H K d 6 2 > u v b b b b b b v u 1 2 6 d L H H H H H H P P F P P P P G H P G P P P P G ",
"0 P P P P P P 0 H H H H J S D H P P H H H H I K d 6 2 1 a t v b b v u a > 5 6 d L U H H H P P H G P P P P P G P P G P P P P P 0 ",
"G P G P P G P P H H H H H G D H P G P H H P P U L d 6 3 2 1 p s s p = 3 2 6 d L U J P H H H H H P P P G P G P P P P P G G P P P ",
"G P G P P P P 0 H H H J H D G P P G H P P H P H U K 6 6 6 3 5 2 2 3 3 5 d d L U H H P H H H H H P P P P P P P P P P P P P P P 0 ",
"G P P P P P P G H H H J J F G P P P H H H H H P H L H K d 6 6 d 6 6 6 d K F I K H H H H P H P H P P 0 P P P G P P G P P G P P P ",
"G P P P P H H H H H P H G D P P H P H P H H H H P H P I G L U L I U L F I P P H H P H P H H H J P P P G H H P H P H H H H H H S ",
"G P P P H H H P G P P P P D G P H H H H P H H P H H H P P U U U U U I P P H H H H H H H H P H H P P P P H P H H H H P H P H P G ",
"G P G P P H H P P P H P G P P P P H H H H P H H H P H P H H H H H H H P H H H H H P H H P H J H P P P P J H H J P H H H P P P 0 ",
"G G P P H H H P P P P G P P P P H H H H H H H H H H H H H H H H H H H H P H H H H H H P H H J J G P P G H H H J H H P H P P P P ",
"I Y Y Y Y Y Y Y Y Y Y Y Y Y Y Y Y Y Y Y Y Y Y Y Y Y Y Y H Y Y Y Y Y Y Y Y Y Y Y Y Y U P U P Y J U Y U P U I U P U P Y Y U Y Y P ",
"# # # + # # # # $ # # # # # # # # # % # # # # # # # # # O # # # # # # % # # # # # # # + + O # O # # @ O @ + # O # O # # @ # # # ",
"X     . o .   . X     . . .   X .     . X .   . .     . X .   . .     X X .   X .     X X .   X .     . X .   o .     X . .   X ",
", , , , , , # , , @ # , , , + , % # O & $ % O # # O O # , # # # , O @ < < , % , , # $ , , , , , , , , , , , # , , O , , , $ @ , ",
"$ % % $ $ % % # # @ $ % % % # $ # $ # % # # O # O O # # # # $ $ # @ $ % % % % % # , , # # , $ $ # % # # # % % # # # $ % $ # # # ",
"O O O + O O O O O O O @ O O O O + + O O @ O O O O O O @ O O O O O O + O O O O # + # O O O O + O + o O O + O O O O O O @ O @ O O ",
"o O @ % O O + O O O # % O O @ O + + + % O O O O O O # $ O O O + O O # % O O # + # + + , o O O O o + # % O O O + O O # & o O O O ",
"O O O X o O + O O O O X X O O O O O O X X O O O O O # X o O O O O O O X X O # # @ + o o o O O O + + O X o O + + O O o X o O O O ",
"O O o o o + + + O O O X O O O O O O O o O O O O O O o X O + O O + O O X O O # + @ O o o O O o O + O o o o + + + O O o o O O O o ",
"O O O O + + + + O O O O O # O O O + O O O O O + O O O # $ O O + + O O O + # + O O @ + O + O O O O O O O + + + + O + + + O O O O ",
"o O o O O o o O O o O o X O O o o O o O o o . X . X . . . . X . o o o o o O O o O o O o o o o O o + o O O O O o o O O o o o o o ",
"o o o o O o o o o o o O X X O X o o o o o o X X X X . . . . o X o o o o o o o o o o o o o o o o o o o o o o o o o o o o o o o o "
};
