/* XPM */
static char *b7fe7e2f9c6d420196542d8d4a99f72adjeO92Bwy2kjvpdh[] = {
/* columns rows colors chars-per-pixel */
"64 64 76 1 ",
"  c #050505",
". c #080707",
"X c #070807",
"o c #080807",
"O c #0C0C0C",
"+ c #100E0D",
"@ c #0F100F",
"# c #10100F",
"$ c #141413",
"% c #191616",
"& c #171817",
"* c #181817",
"= c #171918",
"- c #1C1C1B",
"; c #221715",
": c #221815",
"> c #241C1C",
", c #1F201E",
"< c #21201F",
"1 c #261F21",
"2 c #1F2020",
"3 c #242423",
"4 c #292523",
"5 c #272826",
"6 c #282927",
"7 c #232728",
"8 c #2A2B29",
"9 c #31312F",
"0 c #2B2F30",
"q c #372D30",
"w c #382E32",
"e c #2D3233",
"r c #2F3739",
"t c #2E393B",
"y c #323535",
"u c #3A3434",
"i c #333837",
"p c #323739",
"a c #3A3639",
"s c #353B3C",
"d c #3B3B3D",
"f c #473C36",
"g c #483D36",
"h c #463F39",
"j c #4B3F38",
"k c #4A413C",
"l c #353F40",
"z c #383F40",
"x c #403E41",
"c c #364142",
"v c #3B4243",
"b c #3E4648",
"n c #3F4A4B",
"m c #414245",
"M c #484542",
"N c #474847",
"B c #414749",
"V c #454C4E",
"C c #464E50",
"Z c #484F51",
"A c #465153",
"S c #495255",
"D c #465659",
"F c #4B5659",
"G c #4E5A5D",
"H c #505C5F",
"J c #4E5D60",
"K c #505E61",
"L c #4F6063",
"P c #526265",
"I c #566669",
"U c #57696D",
"Y c #596C70",
"T c #607376",
"R c #6F8082",
"E c #748487",
/* pixels */
"O...ooXXXXX.   XX.   X...  X.... X... ..X.     X.XXXXXXX..XX.XXO",
"essssssssesesesee8$ esssssesssssssssesep0ee7 X0eresessssssiyeese",
"pvvvvvvvvvvvvzcvvs=.znvvvvcvvvvvvvvvvvcvzvve Osvvvccvbvvvvvzvvvr",
"ezzzzzzzvslzdvzlvs=OsbJbzzzzzzczcczzlsvsbLve Oslsvcdzzzzzzzzszze",
"ezvsvlzzzzvsaGSvvs=XddbvzzzzzzzzzlzzzzzdsBze @dsvPBvlzzzlvsvvzze",
"ezsvzzzzzzzzuBVvvs-OddszzzzzzzzzzzzzzzvssdzeX*ssaZBczzzzzsvszzze",
"evsszdlzzzzzuudcss=XsvzzzzzzzzzzzzzzzzlzzzveO$sdwavdzzzzzzsvvsse",
"evvvvlvzvzzzsdzvcz-OvvlvzzzzzzzzzzzzzzzzzlceO&lzdddcvlzzvzvzcvve",
"lBBVVCBVBBVBBVnBBn3$vvvscdvszzzzzzzzczzzzvzi@$bBVBBVBVVBBBBVnBVs",
"pbzzzzzzvvzvvvvvvv>Ovbsvvzcvvzzzzzvzcvcczzc9O&lvzvvzvzvvvvvvvvve",
"zVVBVVNVVVVnCBVBVB4%FABBBBBBBVBVVBBBBBBBBNVs@$BVCBBVVBVBVVBVBVVs",
"zVCVVVZVCVVVCCCCCB3+nbvvvvvvvvvvvvvvvvbvvcvi@5NCCCCCCCZVVVCVCCCs",
"zCCVZVVVVCVVCVCVVV6*GSBVVVVVVVVVCVVVVVBVCBVz<<NZCCCVVZVVZVZVVVCd",
"aCCVVVVCVVCCVCCVCB8-PFCVAPIPIIPPPPPLPPPCCCZv<4VVCCVCVCVCVVVVVCCs",
"zCVVZVVCCVVVVVVVCV8-PFVVHRETRYYYUJUHIYUGCVCm<<VVCVVCVVVVVVZVVCCz",
"zCVCVCVVVCCVCCVCVN8,LFVVBvmddspei0i09izbCCZz%4VVVVCVVZVZVCVVCCCs",
"zVVVZVZVZVVVVVVVVV12KDVVFPFZSFDCAAAAAASFCVCm<<NVCCCCZVVVVVVVVVZz",
"zVVVVVVVVVVZVZZVSx7=PJVVBmhzdyay0i0aaisbCCCv-8VVNCVCVCVZVCZVCVCa",
"zVVVVVZVZVVVVVVVAx82KFVCFPFASDCSAAAAAAAFCVVm<8VVVCCVVVVVVVVVVVCz",
"zVVVVZVVVVCVVCZVCV1=PFVVBmdahazyi080s0snCVZm:8VVVVCVVZVZZVZVCVVz",
"zCVZZVZVVVVZZVZVCC4=JFVCFLFDCSCDASCSSSFFCCCv<8VVCVVVVZVVVVVVVVCz",
"zZVVVVVVZVCVVVVVCB1%nSVVbp880p0pia9ddhdBVVZv:8VVVCZVVVVVZVZVCVVz",
"zVVVVVZVVVVZVVZVCV7-JFCCFJDACSCCAZAASASFZVZv>qVVVVCVVVVZVVVVVVVz",
"zVVZVZVVZVVVVCVVCB2=BCVVvyyq0e8848u8w49vVVVv%8VVCVVCZVCVZVVVVVVz",
"zVVVZVVVZVCVVCVVVB2=JFCVVhhhNVBBhfggghNVVCCx%8VVZVZVVZVZVVVZVZZz",
"zVVVVVVCVVZVVVVZCV2%BZVCVhjjNCZVNkjkkVCCVCCz:8VVVVVVVVVVZVVVVVVz",
"zZVZZVZVVVVVVZVVCB2%FFNCCNjhVCVVVjjkNVVCCVZv-8VVVVZVVVVVVZVZVVVz",
"zZVVVVVVZVZVVVZVCB2%bZCVCCMNNVZVVjkMMVVVCCZm18VVVZVVVZVZVVVVVVVl",
"zVVVVZVVVVZVVVVZCB2$zCVCCCNxZCVZVkkkVVVVVCCz18VVVVVZVZVVVVVVVVVz",
"zVZVVVZVZVVVVZVCCC2%vCVCCNMNCCCVVMkVVVVZVCCx18VVZVVVVVVVVZVZVVVz",
"zVVVVVVVVCVVVVZVCB2=bCCCCCNCCCCVVkkNZVVVCCZm%8VVVZVZVZZVVZVVVVVz",
"zVVVZVZVVVVZVCVVCB31vCCCCCZCNCCCVVkVVVVZCCZx18VVVVVVVVVVVVVVZVVl",
"aCVCVCCVCVVCBSVVCB4-vVZVVCVZVVCVVVMVVVVVVZCm48VVNFVVVVCCVCVCVVZd",
"zCCCCVVCVVCVaFnVVV3>BZVVVVVVZCVVVVNVVZVZVVVB<8VmxGvVCVVVVVVCCVCd",
"zCCCVVCVCVCCaavBCV4-vVVVZVVVVVVCVVMVVVVVVVCm44VmudbVVCVVCVVVVCCs",
"zCCNVVVVCNCBhamVCB4<mZFZVVZVCVVCVVVVVVZVAFCm4qVMadBVVVCCVCVVVVCd",
"mJJFJGGJKJFKGGGDFC84mBPSZVVVVVVVVVCVZVZNVPZb48VFAHGJFSFFFSGFGHGn",
"vDDFSDDDSDDDADDzCz><vxVVVVVVVVVVVVVVVVVVdVZm<<snzDSDCvnzncDDDDDz",
".                  %vCFHFHHHGGGGHHFGGGHGSFZv%                  .",
"O                   0sCDDDDDDDDADDDDDDDCsVs8   .        .    . O",
"-$.@2= @,&$&-$.$-%O                            =-$$--$$--OX--$$*",
"1- -6-.-8,&36&X,6-$#.   X   . .X    X.  .   OOO35*-55=-52O@67*-3",
"2=.-8=.-6,-56*X,6--33=$*,$ &=&$=-$ $,*$--# $-@O55-,63-,83OO63-33",
"32O-8-O25,-36=O<6<-56-=55&O34--85$O36--65$O53$@63-,65-,83@$63--3",
"3,$,6-@25,-35-@38-=56>-56-#55--55*#65-,65$$53$$55->85-,63$&83-23",
"3-O-8-O,8,-56=O<8<-56--55&O35,-56$@36--65$@55$#65=,63-,63@$63-,3",
"<,$-8,$,8,-36,#38--58--55-@36,-55-$55--65=$55=$65-,65-,87$$63-23",
"3,@-8,O,5,-58-O38-=58--55-@35,,55=O55-<65%+53&#67-,83-,55$$63-,3",
"3,$36,&35,-36,$36--55--48-=55,-56-&56--65-*65-=43->83-,83=-63-<3",
"3-$36,$33,-76-$38--58--56=$53--56=&56-,65**63==53=,63-,83&=5<-,3",
"3-$36-$33--35-$58--56--56=$5<--55%$65--85$$65$$52--85-,63&-5--23",
"--@-3-@23,-33-@<3--37--53=#33--53$#37--53$$5<%$73-,52-25,$$52-,3",
",&O-3&O-,--3<$@-3--53--73$O,2--5<$O,2--5,$O,-$@3--,52-,5-@$2,-<3",
"<=O=3&O-3,-<3&O,3-=53>%33$@-3--73$@,3--5<$$22$@23--53=-7,@$23=-3",
"*@ $-@ $-&@--@ &-$O--=@2*O -=$@,-X -=$@,=X.-=..2=$@,*$@,$XO,&$$-",
"sstcbttccstcbt0lllezll0ps80svrrscervbctbvttvctsvvctbvcsbc0sbcsrr",
"CIIIIIIIPGPUIIHPKKKKKIKFJFFJKKKKPJPIIIIPIKIIIIIIKIPPIIIIJJIIIPKV",
"zBBCVCCBbVVVVVVVVCCNCCCVxzVVZZZVVVVVVVNbvbCVCVCBBvBVVVVvnVVVVZVs",
"pnCJCVVmBCCGAVVVCCCKVVVzbVCKBCVVCVAGnVVnbVSFBVVVbBSHBVVBVVFFBVAd",
"aBxZnBVCCVvFbNVVCCxSbBbzbVxJzVZVVVBFvVNnCVmFvCVmBBBDvVVCVBBAvVVi",
"pnawzVCVVVawvVVVCVwazVBBzBwazZZVVBqabVVVCBqavVvzVmwaBCVVCxqzBBbp",
"sVxzVCCCZZxzBCVVCNxxVCBzZCxxVCVCVVxxBCVCCNxxCVvnVVdmVVZVCBxxVnnp",
"uuuuwuwfaafaxzdhxxuaaa0aqae000aqhzxdazdhadahduufduuuwuuaafuhdaa8",
">>;;;;;1:1;1111311:1>1=2$1%$@$1%11111111;1;11:>:>;;;;;>1;1>11311"
};
