/* XPM */
static char *_5dec5592e554218942d8b4376c08754sTmHihov9Va9FhuR[] = {
/* columns rows colors chars-per-pixel */
"64 64 112 2 ",
"   c #040303",
".  c #0A0706",
"X  c #0E0C0B",
"o  c #11100F",
"O  c #252422",
"+  c #292624",
"@  c #332421",
"#  c #352926",
"$  c #362B29",
"%  c #392D2A",
"&  c #3C312E",
"*  c #3D3633",
"=  c #3E3936",
"-  c #413125",
";  c #42352A",
":  c #43382D",
">  c #493929",
",  c #413530",
"<  c #423A35",
"1  c #483C35",
"2  c #423D3A",
"3  c #483E38",
"4  c #6F4C0B",
"5  c #774A07",
"6  c #7C4B00",
"7  c #7E5201",
"8  c #6A4411",
"9  c #4F422C",
"0  c #46413D",
"q  c #48423E",
"w  c #554934",
"e  c #584C35",
"r  c #534A3C",
"t  c #5E543E",
"y  c #755D28",
"u  c #695731",
"i  c #6D5B35",
"p  c #63553C",
"a  c #6A5C3D",
"s  c #7C622B",
"d  c #4B4743",
"f  c #4D4A46",
"g  c #4F4C48",
"h  c #524D46",
"j  c #514E4A",
"k  c #565044",
"l  c #5A5142",
"z  c #55524C",
"x  c #59554E",
"c  c #5E5A4E",
"v  c #5B5750",
"b  c #5E5A54",
"n  c #615640",
"m  c #615B4E",
"M  c #625D56",
"N  c #645F59",
"B  c #656257",
"V  c #65605A",
"C  c #65615A",
"Z  c #66625A",
"A  c #6B675B",
"S  c #69645C",
"D  c #69655D",
"F  c #6D685C",
"G  c #6E6A5D",
"H  c #6E6A5F",
"J  c #716C5E",
"K  c #716D5E",
"L  c #79735D",
"P  c #6F6B60",
"I  c #706C60",
"U  c #726E61",
"Y  c #736F61",
"T  c #736F62",
"R  c #747062",
"E  c #757163",
"W  c #855B05",
"Q  c #8A5E06",
"!  c #8B6516",
"~  c #8F6B1F",
"^  c #976F1A",
"/  c #966E1B",
"(  c #906B1F",
")  c #946D1C",
"_  c #946E1C",
"`  c #956E1C",
"'  c #9C7012",
"]  c #9E7315",
"[  c #9F7315",
"{  c #9C7117",
"}  c #9E7316",
"|  c #97701C",
" . c #997118",
".. c #9B7118",
"X. c #A07314",
"o. c #A07315",
"O. c #A57D1D",
"+. c #876723",
"@. c #866725",
"#. c #886823",
"$. c #8D6A20",
"%. c #886824",
"&. c #866829",
"*. c #8F712C",
"=. c #9D7C24",
"-. c #817D6A",
";. c #A6811C",
":. c #9E8F3D",
">. c #A88D35",
",. c #B9A12F",
"<. c #84826A",
"1. c #86846B",
/* pixels */
"1.<.-.K K J J J G M G J J G M S M S M A M A b b b b v b S b S b A M I P P K G K I I I I I K K K K K K K I K K K A M G I K A B A ",
"-.B b b v v v v v z v v v v x x z x z x x x z z z z z z v z x b x z x x v v v v x x v v v v v v v v v x x x v v x x x x b x x v ",
"E z g h f f g g g g g g f g g g g g g g g g g g g g g g g g g g g g g g g g g g g g g g g g g f g g g f g g g g g g g g g g d * ",
"S z q B < d g g g g g g g g g g g g g g g g g g g g g g g g g g j g g g g g g g g g g g g g g g g g g g g g g g g g d M = d f 0 ",
"E z = , $ d g g g g g g g g g g g g g g g g g g g g g g g g g g g g g g g g g g g g g g g g g g g g g g g g g g g d < : $ d f & ",
"Z g 2 * q h g g g g g g g g g g g g g g g g g g g g g g g g g g g g g g g g g g g g g g g g g g g g g g g g g g g g = & q g g q ",
"B j d d g g g g g g g g g g g g g g g g g g g g g g g g g g g g g g g g g g g g g g g g g g g g g g g g g g g g g g f f g g f & ",
"M j j g g g g g f f f f f f f f f f g f g g g g g g g g g f g f f g f g f g f g g f g f g f g g g f f f g f f f g g g g g g f @ ",
"z g g g g g g d & $ % % % % % % & & = & = = 2 2 2 2 0 2 = 0 = 0 0 = 0 2 2 2 2 2 0 2 2 2 2 2 2 2 2 * 2 % 2 % $ & f g g g g g d # ",
"b j g g g g g d # * 2 0 d q 2 d 2 d d d d d d d d d d d f d d d d d d d d d d d d d d d d d f d d 0 d d d 2 d d g g g g g g d # ",
"z j g g j g g d $ q 3 2 2 2 2 2 2 2 2 2 2 2 2 2 2 2 2 2 2 2 2 2 2 2 2 2 2 2 2 2 2 2 2 2 2 0 2 2 2 2 2 2 2 2 g b z g g g g g d # ",
"b j g g g g g d % d 2 = = = * 2 = = = = = = = = = = = = = = = = = = = = = = = = = = = = = = = = * * * 2 * 2 g z g g g g g g f # ",
"N j j g g g g f = d = = = = = = = = = = = = = = = = = = = = = = = = = = = = = = = = = = = = = = = = = = = = g b j f g g g g f * ",
"N j g g g g g f 2 d 2 * = = = = = = = = = = = = = = = = = = = = = = = = = = = = = = = = = = = = = * = = = = j M j j g g g g f # ",
"N j g g g g g d & d 2 = = * = = = = = = = = = = = = = = = = = = = = = = = = = = = = = = = = = = = * = = = 2 g M z g g g g g f * ",
"N j g g g g g f < d 2 = = 2 = = 2 = = = = = = = = = = = = = = = = = = = = = = = = = = = = = = = = 2 = = = 2 g M j g g g g f f 2 ",
"N j g g g g g f 2 g d d d d d d d d f d d d d d d d d d d d d d d d d f d f d d d d d d d d d d d d d d d d z P z g g g g g f = ",
"N j g g g g g g 2 d 0 2 2 2 2 2 2 2 2 2 = 0 2 2 2 2 2 2 2 0 2 0 = d = = 2 = 0 2 2 2 2 0 2 2 0 2 2 2 d 2 2 0 z R z g g g g g f % ",
"N j j g g g g f 2 d d d f d d f f d f d d d d d d d d d d d d d d d d f f d d f d d d d d d d d d d d d d d z R z g g g g g d = ",
"N z g g g g g f 2 f j f g g g g g g f g g g g g g g j g g g g g g g g g g g g g g g g g g g g g g g g f g g z R z g g g g g d % ",
"N j g g g g g f 2 f j j g g g g g g g g g g g g g g g g g g g g g g g g g g g g g g g g g g j g g g g g g g z R z g g g g g d # ",
"N j g g g g g f 2 f j f g g g g g g g g g g g g g g g g g g g g g g g g g g g g g g g g g g g g g g g g g g z R z g g g g g d # ",
"N j g g g g g f 2 d g g g g g g g g g g g g g g g g g g g g g g g g g g g g g g g g g g g g g g g g g g g g z R z g g g g h d # ",
"N j g g g g g f 2 f g g g g g g g g g g g g g g g g g g g g g g g g g g g g g g g g g g g g g g g g g g g g z R z g g g g j d # ",
"N j j g g g g f & d f g g g g g g g g g g g g g g g g g g g g g g g g g g g g g g g g g g g g g g g g g g g z R z g g g g g d # ",
"N j g g g g g f = f g g g g g g g g g g g g g g g g g g g g g g g g g g g g g g g g g g g g g g g g g g g g z R z g g g g g f # ",
"N j g g g g f f & f g g g g g g g g g g g g g g g g g g g h h h g h h g g g g g g g g g g g g g g g g g g g z R z g g g g h d # ",
"Z j g g g g g d $ d g g g g g g g g g g g g g g g g g g l +.+.h z @.@.l g g g g g g g g g g g g g g g g g g z E z g g g g f f * ",
"N j g g g g g d $ d g g g g g g g g g g g f g g g g j l #.o./ l l / } #.l g g g g g g g g g g g g g g g g g z I z g g g g g f $ ",
"z g g g g g g d $ d g g g g g j g g g 2 d 0 f g g g l #.} o./ l l / [ } #.k g g g g g g g g g g g g g g g g z Z z g g g g g f * ",
"b j g g g g g d % d j g g j f g g d 0 d 2 d g g g h #.} o.} ) h h / } } ] #.l g g g g g g g g g g g g g g g z G z f g g g g f $ ",
"z j g g g g g f % d j g g f d 2 0 0 d 0 f g g g j @.o.} } } s h h s } ] ] ] #.k f f g h g g g g g g g g g g j Z z g g g g h f * ",
"b j g g f j f 2 % d g f 2 3 & & z d g d g g g l #.[ [ } [ / t f g t | [ [ [ Q 8 - & d j g g g g g g g g g g z M j g g g g g f = ",
"j j g g j j d % * 2 2 % & M x d z k g f g g k +.[ [ [ } / p h h h h p / ' Q 6 7 4 : 2 f h h g g g g g g g g g M z g g g g g g = ",
"M j g g f g d % x G G x d x z g k s t g g g k / }  .| s p g l +.#.k g p y 5 7 W ! r 3 m &.+.k g g g g g g g z M g g g g g g g = ",
"N j g g g g f * 3 x x h j j g g t #.p s k g h t p t t k g k #.[ [ #.k d ; > 9 e w f j M a ( l g g g g g g g j b z g g g g g g = ",
"N j j g j f f = % d j f g g g g k ~ ~ | l g g g h f h h g k / [ [ / k d $ < < 0 f z K N l $.l h g g g g g g j M j g g g g g g = ",
"N j g g g g g d 2 d g g g g g g h t i #.k f k #.~ ~ #.i h h p  ./ p h h u *.~ ~ :.L S c @. .@.h g g g g g g z b j g g g g g g = ",
"N j g g g g g j 2 f g g g g g g g f g t g g t | X.X.} | +.l h t t g t @.| O.,.,.>.m j j p p p g g g g g g g j M z g g g g g g = ",
"N j g g g g g d % d g g g g g g g g g g g g g p | X.} } } #.k g d t #.[ } } ;.=.a j g g g g g g g g g g g g z M j g g g g g g 2 ",
"z j g g g g g d $ f h g g g f g g g g g g g g g p  .} } X.} i h g i } ] ] ] / p h h f g j f g g g g g g g g j N z g g g g g d = ",
"b j g g g g g d $ f h f g g j g g g g g g g g g h p / } } } ~ h k ~ ] ] ]  .p h h f g g g g g g g g g g g g j N j g g g g g g = ",
"j j g g g g g d $ f g g g g g g g g g g g g g g g g p | } X./ t t | ] ]  .p h g g g g g g g g g g g g g g g j b j g g g g g f & ",
"j g g g g g g d $ d g g g g g g g g g g g g g g g h h p / [ / k h ) ] | p g g g g g g g g g g g g g g g g g j N z g g g g g d * ",
"g g g g g f g d $ f h g g g g g g g g g g g g g g g g h p | _ k l ) | p h g g g g g g g g g g g g g g g g g z N z g g g g g d & ",
"g g g g g j j d $ d g g g g g g g g g g g g g g g g g g h t l j g t t g g g g g g g g g g g g g g g g g g g j b j g g g g g d = ",
"j f g g g g g d & d g g g g g g g g g g g g g g g g g g g g g g g g g g g g g g j g g g g j f g g g g g g g j N z g g g g g d = ",
"b j g g g g g d $ d g g g g g g g g g g g g g g g g g g g g g g g g g g g g g g f g g g g g g g g g g g g g j b j g g g g g g 2 ",
"j j g g g g g d $ d j f g g g g g g g g g g g g g g g g g g g g g g j g j d j j g j g g g g g g g g g g g g j M j g g g g g d 2 ",
"M j g g g g g d $ d f j g g g g g g g g g g g g g g g g g g g g g g f g j j f j h f h h h h g j g j g g h h z J z g g g g g g = ",
"N j g g g g g d % d j f g g g g g g g g g g g g g g g g g g g g g g f g f j h k s p s p @.@.k h k s z k @.@.l Z z g g g g g f = ",
"N j g g g g g d % d j j g g f j g g g g g g g g g g g g g g g g g g j f h h y p +.p ~ #.i #.n y t #.t s i ~ c G z g g g g g g = ",
"N j g g g g j d % d g g g g g g g g g g g g g g g g g g g g g g g h g g j h t k t k p p h t h p k t k t k t k Z z g g g g g d & ",
"N j g g g g g d % d g g g g g g g g g g g g g g g g g g g g g g h @.k k &.n y k h @.@.t &.@.p s t s t s t s c K z g g g g g d * ",
"N j j g g g g d % d f g g g g g g g g g g g g g g g g g g g g g k @.p @.( p %.p s i ) +.i $.p +.p ~ #.i @.| c K z f g g g g f % ",
"N z g g g g g d $ d j g j j j j g j j j g z g g z g j g j j j j h n h p n h n h n h n p k n z l k t p k p l x K z g g g g g d # ",
"N j g f g g g f d M N M N P I I I E R I E K P R I N P N J T T I T T G I T I T I I E R I E H I Z P N P P I E I E z g g g g g d # ",
"N j g h g g g j j j j j j v x b x v v z b z c x v z v z v v b v b x b x c v v b x x x x b x x z z z v v v v v v g g g g g g f # ",
"z j h j f g j f d < % $ # + # + # O O O O + + $ < f g g f g g f j f f f f j d 2 $ $ # + # + $ + O O + + O $ = d g g g h f h d # ",
"b g q N < d f f 2 O . . . . .   . .           X O 2 f g g g g g h g j g f f < O . . .       .   .         X O 2 g f d M < f q # ",
"z g 2 , % d f f * X                             o g j g g g g g g g g g g f * X                             X g j f 2 ; # d d # ",
"b g = * q j j j j X                             o z j g g g g g g g g g g j g o               .         .   X v j f < * q h d # ",
"h j d d f f f f j h c h f f f c h c h m c c m m j j g f f g g g f g f g g g j g c h f g f x j x h c b m m c h j g d d d d h d # ",
"2 % % $ $ $ & < & 0 1 q q d d f d d 1 d 1 1 1 d < < & $ $ & = & = 2 0 2 2 2 2 q 1 q < q q 1 q 3 q 1 1 1 1 1 , % % $ % % % % % @ "
};
